G04 (created by PCBNEW (2013-07-07 BZR 4022)-stable) date 7/21/2013 7:03:44 PM*
%MOIN*%
G04 Gerber Fmt 3.4, Leading zero omitted, Abs format*
%FSLAX34Y34*%
G01*
G70*
G90*
G04 APERTURE LIST*
%ADD10C,0.00590551*%
%ADD11R,0.0236X0.0413*%
%ADD12R,0.0413X0.0591*%
%ADD13R,0.0590551X0.11811*%
%ADD14C,0.055*%
%ADD15R,0.0217X0.0451*%
%ADD16R,0.0451X0.0217*%
%ADD17R,0.0709X0.0629*%
%ADD18R,0.055X0.035*%
%ADD19C,0.16*%
%ADD20R,0.035X0.055*%
%ADD21R,0.05X0.02*%
%ADD22C,0.06*%
%ADD23C,0.025*%
%ADD24C,0.008*%
G04 APERTURE END LIST*
G54D10*
G54D11*
X42152Y-43922D03*
X42585Y-43922D03*
X43018Y-43922D03*
X43451Y-43922D03*
X43884Y-43922D03*
X44317Y-43922D03*
X44750Y-43922D03*
X45183Y-43922D03*
G54D12*
X40752Y-42926D03*
X46048Y-42926D03*
X40752Y-46233D03*
X46048Y-46233D03*
G54D13*
X37000Y-43155D03*
X38000Y-43155D03*
X39000Y-43155D03*
X39000Y-46344D03*
X38000Y-46344D03*
X37000Y-46344D03*
G54D14*
X44874Y-41650D03*
X44826Y-40650D03*
X44874Y-39650D03*
G54D15*
X45437Y-37468D03*
X45122Y-37468D03*
X44807Y-37468D03*
X44493Y-37468D03*
X44178Y-37468D03*
X43863Y-37468D03*
G54D16*
X43824Y-37900D03*
G54D15*
X43863Y-38332D03*
X44178Y-38332D03*
X44493Y-38332D03*
X44807Y-38332D03*
X45122Y-38332D03*
X45437Y-38332D03*
G54D16*
X45476Y-37900D03*
G54D14*
X37800Y-31526D03*
X38800Y-31574D03*
X39800Y-31526D03*
X40800Y-31574D03*
X41800Y-31526D03*
G54D17*
X35500Y-36691D03*
X35500Y-37809D03*
X35500Y-39241D03*
X35500Y-40359D03*
G54D18*
X36800Y-39525D03*
X36800Y-38775D03*
X37000Y-41025D03*
X37000Y-41775D03*
X38000Y-41025D03*
X38000Y-41775D03*
X39000Y-41025D03*
X39000Y-41775D03*
G54D19*
X45200Y-32200D03*
X35300Y-47250D03*
G54D20*
X38775Y-32750D03*
X38025Y-32750D03*
X36425Y-37900D03*
X37175Y-37900D03*
G54D18*
X35500Y-41975D03*
X35500Y-41225D03*
X42600Y-35975D03*
X42600Y-35225D03*
X43550Y-33875D03*
X43550Y-34625D03*
X42500Y-37675D03*
X42500Y-38425D03*
X37200Y-36075D03*
X37200Y-36825D03*
X45300Y-36675D03*
X45300Y-35925D03*
X44050Y-36675D03*
X44050Y-35925D03*
G54D21*
X38000Y-33650D03*
X38000Y-34150D03*
X38000Y-34650D03*
X38000Y-35150D03*
X38000Y-35650D03*
X38000Y-36150D03*
X38000Y-36650D03*
X38000Y-37150D03*
X38000Y-37650D03*
X38000Y-38150D03*
X38000Y-38650D03*
X38000Y-39150D03*
X38000Y-39650D03*
X38000Y-40150D03*
X41600Y-40150D03*
X41600Y-39650D03*
X41600Y-39150D03*
X41600Y-38650D03*
X41600Y-38150D03*
X41600Y-37650D03*
X41600Y-37150D03*
X41600Y-36650D03*
X41600Y-36150D03*
X41600Y-35650D03*
X41600Y-35150D03*
X41600Y-34650D03*
X41600Y-34150D03*
X41600Y-33650D03*
G54D22*
X35850Y-34337D03*
X35850Y-33550D03*
X35850Y-32763D03*
G54D23*
X44650Y-36400D03*
X43550Y-33250D03*
X37000Y-42250D03*
X37450Y-34150D03*
X38000Y-42250D03*
X37450Y-34650D03*
X39000Y-42250D03*
X37450Y-35150D03*
X36200Y-38750D03*
X44500Y-38850D03*
X39000Y-47250D03*
X38000Y-47250D03*
X37000Y-47250D03*
X36600Y-36850D03*
X35500Y-42450D03*
X44325Y-44450D03*
X46050Y-46850D03*
X46050Y-43525D03*
X40750Y-43550D03*
X40750Y-46825D03*
X42500Y-38900D03*
X44600Y-36950D03*
X44650Y-35925D03*
G54D24*
X38950Y-39900D02*
X37175Y-39900D01*
X43451Y-43922D02*
X43451Y-44249D01*
X41750Y-42700D02*
X40500Y-41450D01*
X41750Y-44200D02*
X41750Y-42700D01*
X41900Y-44350D02*
X41750Y-44200D01*
X43350Y-44350D02*
X41900Y-44350D01*
X43451Y-44249D02*
X43350Y-44350D01*
X40500Y-41450D02*
X38950Y-39900D01*
X37175Y-39900D02*
X36800Y-39525D01*
X34900Y-39700D02*
X36625Y-39700D01*
X35650Y-33550D02*
X35300Y-33900D01*
X35300Y-33900D02*
X35300Y-36400D01*
X35300Y-36400D02*
X35500Y-36600D01*
X35850Y-33550D02*
X35650Y-33550D01*
X35000Y-36600D02*
X34850Y-36750D01*
X34850Y-36750D02*
X34850Y-39650D01*
X34850Y-39650D02*
X34900Y-39700D01*
X35500Y-36600D02*
X35000Y-36600D01*
X36625Y-39700D02*
X36800Y-39525D01*
X37000Y-41025D02*
X37000Y-39725D01*
X37000Y-39725D02*
X36800Y-39525D01*
X44650Y-36400D02*
X44650Y-36675D01*
X44000Y-36675D02*
X44650Y-36675D01*
X43863Y-36812D02*
X44000Y-36675D01*
X43863Y-37468D02*
X43863Y-36812D01*
X42600Y-35975D02*
X42175Y-35975D01*
X42100Y-35900D02*
X39100Y-35900D01*
X42175Y-35975D02*
X42100Y-35900D01*
X38775Y-32750D02*
X38775Y-35575D01*
X38775Y-35575D02*
X39100Y-35900D01*
X40850Y-37650D02*
X41600Y-37650D01*
X39100Y-35900D02*
X40850Y-37650D01*
X43550Y-33250D02*
X43550Y-33875D01*
X37000Y-40100D02*
X37000Y-41025D01*
X38000Y-41025D02*
X39000Y-41025D01*
X37000Y-41025D02*
X38000Y-41025D01*
X38775Y-32750D02*
X38775Y-31551D01*
X44650Y-36675D02*
X45300Y-36675D01*
X41600Y-37650D02*
X42475Y-37650D01*
X42475Y-37650D02*
X42500Y-37675D01*
X44807Y-37468D02*
X44807Y-37168D01*
X44807Y-37168D02*
X45300Y-36675D01*
X45300Y-36675D02*
X45300Y-36950D01*
X45300Y-36950D02*
X45437Y-37087D01*
X45437Y-37087D02*
X45437Y-37468D01*
X38775Y-31551D02*
X38800Y-31526D01*
X43824Y-37900D02*
X43750Y-37900D01*
X43150Y-35650D02*
X41600Y-35650D01*
X43560Y-36060D02*
X43150Y-35650D01*
X43560Y-37710D02*
X43560Y-36060D01*
X43750Y-37900D02*
X43560Y-37710D01*
X38000Y-39650D02*
X39050Y-39650D01*
X42585Y-43185D02*
X40700Y-41300D01*
X42585Y-43185D02*
X42585Y-43922D01*
X39050Y-39650D02*
X40700Y-41300D01*
X43863Y-38332D02*
X43532Y-38332D01*
X42000Y-36150D02*
X41600Y-36150D01*
X42200Y-36350D02*
X42000Y-36150D01*
X42500Y-36350D02*
X42200Y-36350D01*
X43400Y-37250D02*
X42500Y-36350D01*
X43400Y-38200D02*
X43400Y-37250D01*
X43532Y-38332D02*
X43400Y-38200D01*
X44178Y-38332D02*
X44178Y-38622D01*
X42500Y-36650D02*
X41600Y-36650D01*
X43200Y-37350D02*
X42500Y-36650D01*
X43200Y-38650D02*
X43200Y-37350D01*
X43450Y-38900D02*
X43200Y-38650D01*
X43900Y-38900D02*
X43450Y-38900D01*
X44178Y-38622D02*
X43900Y-38900D01*
X38025Y-32750D02*
X38025Y-31799D01*
X38000Y-33650D02*
X38000Y-32775D01*
X38000Y-32775D02*
X38025Y-32750D01*
X38025Y-31799D02*
X37800Y-31574D01*
X44750Y-43922D02*
X44750Y-43550D01*
X41200Y-40150D02*
X41600Y-40150D01*
X41150Y-40200D02*
X41200Y-40150D01*
X41150Y-41050D02*
X41150Y-40200D01*
X43200Y-43100D02*
X41150Y-41050D01*
X44300Y-43100D02*
X43200Y-43100D01*
X44750Y-43550D02*
X44300Y-43100D01*
X43018Y-43922D02*
X43018Y-43268D01*
X41100Y-39650D02*
X41600Y-39650D01*
X40900Y-39850D02*
X41100Y-39650D01*
X40900Y-41150D02*
X40900Y-39850D01*
X43018Y-43268D02*
X40900Y-41150D01*
X42400Y-32174D02*
X41800Y-31574D01*
X42400Y-33675D02*
X42400Y-32174D01*
X41600Y-34150D02*
X41925Y-34150D01*
X41925Y-34150D02*
X42400Y-33675D01*
X42150Y-32876D02*
X40800Y-31526D01*
X42150Y-33525D02*
X42150Y-32876D01*
X41600Y-33650D02*
X42025Y-33650D01*
X42025Y-33650D02*
X42150Y-33525D01*
X37450Y-34150D02*
X38000Y-34150D01*
X37000Y-43155D02*
X37000Y-42250D01*
X37000Y-42250D02*
X37000Y-41775D01*
X37450Y-34650D02*
X38000Y-34650D01*
X38000Y-43155D02*
X38000Y-42250D01*
X38000Y-42250D02*
X38000Y-41775D01*
X41600Y-38650D02*
X41350Y-38650D01*
X44500Y-41650D02*
X44850Y-41650D01*
X44350Y-41500D02*
X44500Y-41650D01*
X44350Y-40100D02*
X44350Y-41500D01*
X44100Y-39850D02*
X44350Y-40100D01*
X42550Y-39850D02*
X44100Y-39850D01*
X42100Y-39400D02*
X42550Y-39850D01*
X41300Y-39400D02*
X42100Y-39400D01*
X41150Y-39250D02*
X41300Y-39400D01*
X41150Y-38850D02*
X41150Y-39250D01*
X41350Y-38650D02*
X41150Y-38850D01*
X45476Y-37900D02*
X45900Y-37900D01*
X45725Y-35225D02*
X42600Y-35225D01*
X46000Y-35500D02*
X45725Y-35225D01*
X46000Y-37800D02*
X46000Y-35500D01*
X45900Y-37900D02*
X46000Y-37800D01*
X41600Y-35150D02*
X42525Y-35150D01*
X42525Y-35150D02*
X42600Y-35225D01*
X38000Y-40150D02*
X38900Y-40150D01*
X43884Y-44166D02*
X43500Y-44550D01*
X43500Y-44550D02*
X41800Y-44550D01*
X41800Y-44550D02*
X41550Y-44300D01*
X41550Y-44300D02*
X41550Y-42800D01*
X41550Y-42800D02*
X40350Y-41600D01*
X43884Y-44166D02*
X43884Y-43922D01*
X38900Y-40150D02*
X40350Y-41600D01*
X41600Y-34650D02*
X43525Y-34650D01*
X43525Y-34650D02*
X43550Y-34625D01*
X45800Y-38332D02*
X45818Y-38332D01*
X45818Y-38332D02*
X46250Y-37900D01*
X45475Y-34625D02*
X43550Y-34625D01*
X46250Y-35400D02*
X45475Y-34625D01*
X46250Y-37900D02*
X46250Y-35400D01*
X45437Y-38332D02*
X45800Y-38332D01*
X44800Y-39050D02*
X44750Y-39100D01*
X44800Y-39050D02*
X45122Y-38728D01*
X45122Y-38332D02*
X45122Y-38728D01*
X42750Y-37150D02*
X41600Y-37150D01*
X43000Y-38750D02*
X43300Y-39050D01*
X43000Y-37400D02*
X43000Y-38750D01*
X42750Y-37150D02*
X43000Y-37400D01*
X43350Y-39100D02*
X43300Y-39050D01*
X44750Y-39100D02*
X43350Y-39100D01*
X37450Y-35150D02*
X38000Y-35150D01*
X39000Y-43155D02*
X39000Y-42250D01*
X39000Y-42250D02*
X39000Y-41775D01*
X41600Y-39150D02*
X42150Y-39150D01*
X42650Y-39650D02*
X44850Y-39650D01*
X42150Y-39150D02*
X42650Y-39650D01*
X36800Y-38775D02*
X36225Y-38775D01*
X36225Y-38775D02*
X36200Y-38750D01*
X44000Y-35925D02*
X44650Y-35925D01*
X44807Y-38332D02*
X44807Y-38543D01*
X44807Y-38543D02*
X44500Y-38850D01*
X44807Y-38332D02*
X44807Y-38043D01*
X45122Y-37728D02*
X45122Y-37468D01*
X44807Y-38043D02*
X45122Y-37728D01*
X39000Y-46344D02*
X39000Y-47250D01*
X38000Y-46344D02*
X38000Y-47250D01*
X37000Y-46344D02*
X37000Y-47250D01*
X37200Y-36825D02*
X36625Y-36825D01*
X36625Y-36825D02*
X36600Y-36850D01*
X37175Y-37900D02*
X37175Y-36850D01*
X37175Y-36850D02*
X37200Y-36825D01*
X35500Y-41975D02*
X35500Y-42450D01*
X44317Y-43922D02*
X44317Y-44442D01*
X44317Y-44442D02*
X44325Y-44450D01*
X46048Y-46233D02*
X46048Y-46848D01*
X46048Y-46848D02*
X46050Y-46850D01*
X46048Y-42926D02*
X46048Y-43523D01*
X46048Y-43523D02*
X46050Y-43525D01*
X40752Y-42926D02*
X40752Y-43548D01*
X40752Y-43548D02*
X40750Y-43550D01*
X40752Y-46233D02*
X40752Y-46823D01*
X40752Y-46823D02*
X40750Y-46825D01*
X38000Y-37150D02*
X37525Y-37150D01*
X37525Y-37150D02*
X37200Y-36825D01*
X42500Y-38425D02*
X42500Y-38900D01*
X41600Y-38150D02*
X42225Y-38150D01*
X42225Y-38150D02*
X42500Y-38425D01*
X44493Y-37468D02*
X44493Y-37057D01*
X44493Y-37057D02*
X44600Y-36950D01*
X44650Y-35925D02*
X45300Y-35925D01*
X44178Y-37468D02*
X44493Y-37468D01*
X38000Y-36150D02*
X37275Y-36150D01*
X37275Y-36150D02*
X37200Y-36075D01*
X38000Y-39150D02*
X35500Y-39150D01*
X35500Y-37900D02*
X36425Y-37900D01*
X35500Y-41225D02*
X35500Y-40450D01*
M02*
