  0
SECTION
  2
HEADER
  9
$ANGBASE
  50
0.0
  9
$ANGDIR
  70
  1
  9
$MEASUREMENT
  70
0
  0
ENDSEC
  0
SECTION
  2
TABLES
  0
TABLE
  2
LTYPE
  70
1
  0
LTYPE
  2
CONTINUOUS
  70
0
  3
Solid line
  72
65
  73
0
  40
0.0
  0
ENDTAB
  0
TABLE
  2
STYLE
  70
4
  0
STYLE
  2
KICAD
  70
0
  40
0
  41
1
  42
1
  50
0
  71
0
  3
isocp.shx
  0
STYLE
  2
KICADB
  70
0
  40
0
  41
1
  42
1
  50
0
  71
0
  3
isocp.shx
  0
STYLE
  2
KICADI
  70
0
  40
0
  41
1
  42
1
  50
15
  71
0
  3
isocp.shx
  0
STYLE
  2
KICADBI
  70
0
  40
0
  41
1
  42
1
  50
15
  71
0
  3
isocp.shx
  0
ENDTAB
  0
TABLE
  2
LAYER
  70
24
  0
LAYER
  2
BLACK
  70
0
  62
250
  6
CONTINUOUS
  0
LAYER
  2
BLUE
  70
0
  62
5
  6
CONTINUOUS
  0
LAYER
  2
GREEN
  70
0
  62
3
  6
CONTINUOUS
  0
LAYER
  2
CYAN
  70
0
  62
4
  6
CONTINUOUS
  0
LAYER
  2
RED
  70
0
  62
1
  6
CONTINUOUS
  0
LAYER
  2
MAGENTA
  70
0
  62
6
  6
CONTINUOUS
  0
LAYER
  2
BROWN
  70
0
  62
54
  6
CONTINUOUS
  0
LAYER
  2
LIGHTGRAY
  70
0
  62
9
  6
CONTINUOUS
  0
LAYER
  2
DARKGRAY
  70
0
  62
8
  6
CONTINUOUS
  0
LAYER
  2
LIGHTBLUE
  70
0
  62
171
  6
CONTINUOUS
  0
LAYER
  2
LIGHTGREEN
  70
0
  62
91
  6
CONTINUOUS
  0
LAYER
  2
LIGHTCYAN
  70
0
  62
131
  6
CONTINUOUS
  0
LAYER
  2
LIGHTRED
  70
0
  62
11
  6
CONTINUOUS
  0
LAYER
  2
LIGHTMAGENTA
  70
0
  62
221
  6
CONTINUOUS
  0
LAYER
  2
YELLOW
  70
0
  62
2
  6
CONTINUOUS
  0
LAYER
  2
WHITE
  70
0
  62
7
  6
CONTINUOUS
  0
LAYER
  2
DARKDARKGRAY
  70
0
  62
251
  6
CONTINUOUS
  0
LAYER
  2
DARKBLUE
  70
0
  62
178
  6
CONTINUOUS
  0
LAYER
  2
DARKGREEN
  70
0
  62
98
  6
CONTINUOUS
  0
LAYER
  2
DARKCYAN
  70
0
  62
138
  6
CONTINUOUS
  0
LAYER
  2
DARKRED
  70
0
  62
18
  6
CONTINUOUS
  0
LAYER
  2
DARKMAGENTA
  70
0
  62
228
  6
CONTINUOUS
  0
LAYER
  2
DARKBROWN
  70
0
  62
58
  6
CONTINUOUS
  0
LAYER
  2
LIGHTYELLOW
  70
0
  62
51
  6
CONTINUOUS
  0
ENDTAB
  0
ENDSEC
  0
SECTION
  2
ENTITIES
0
LINE
8
BLACK
10
86.1898
20
-123.749
11
86.1898
21
-78.0009
0
LINE
8
BLACK
10
85.8088
20
-123.749
11
85.8088
21
-78.0009
0
ARC
8
BLACK
10
85.9993
20
-78.0009
40
0.1905
50
360
51
540
0
ARC
8
BLACK
10
85.9993
20
-123.749
40
0.1905
50
180
51
360
0
LINE
8
BLACK
10
118.692
20
-123.749
11
118.692
21
-78.0009
0
LINE
8
BLACK
10
118.311
20
-123.749
11
118.311
21
-78.0009
0
ARC
8
BLACK
10
118.501
20
-78.0009
40
0.1905
50
360
51
540
0
ARC
8
BLACK
10
118.501
20
-123.749
40
0.1905
50
180
51
360
0
LINE
8
BLACK
10
85.9993
20
-78.1914
11
118.501
21
-78.1914
0
LINE
8
BLACK
10
85.9993
20
-77.8104
11
118.501
21
-77.8104
0
ARC
8
BLACK
10
118.501
20
-78.0009
40
0.1905
50
270
51
450
0
ARC
8
BLACK
10
85.9993
20
-78.0009
40
0.1905
50
90
51
270
0
LINE
8
BLACK
10
85.9993
20
-123.939
11
118.501
21
-123.939
0
LINE
8
BLACK
10
85.9993
20
-123.558
11
118.501
21
-123.558
0
ARC
8
BLACK
10
118.501
20
-123.749
40
0.1905
50
270
51
450
0
ARC
8
BLACK
10
85.9993
20
-123.749
40
0.1905
50
90
51
270
0
LINE
8
BLACK
10
89.9795
20
-107.633
11
90.3605
21
-108.014
0
LINE
8
BLACK
10
90.3605
20
-107.633
11
89.9795
21
-108.014
0
LINE
8
BLACK
10
91.7575
20
-98.2345
11
92.1385
21
-98.6155
0
LINE
8
BLACK
10
92.1385
20
-98.2345
11
91.7575
21
-98.6155
0
LINE
8
BLACK
10
92.7735
20
-93.4085
11
93.1545
21
-93.7895
0
LINE
8
BLACK
10
93.1545
20
-93.4085
11
92.7735
21
-93.7895
0
LINE
8
BLACK
10
93.7895
20
-107.125
11
94.1705
21
-107.506
0
LINE
8
BLACK
10
94.1705
20
-107.125
11
93.7895
21
-107.506
0
LINE
8
BLACK
10
93.7895
20
-119.825
11
94.1705
21
-120.206
0
LINE
8
BLACK
10
94.1705
20
-119.825
11
93.7895
21
-120.206
0
LINE
8
BLACK
10
94.9325
20
-86.5505
11
95.3135
21
-86.9315
0
LINE
8
BLACK
10
95.3135
20
-86.5505
11
94.9325
21
-86.9315
0
LINE
8
BLACK
10
94.9325
20
-87.8205
11
95.3135
21
-88.2015
0
LINE
8
BLACK
10
95.3135
20
-87.8205
11
94.9325
21
-88.2015
0
LINE
8
BLACK
10
94.9325
20
-89.0905
11
95.3135
21
-89.4715
0
LINE
8
BLACK
10
95.3135
20
-89.0905
11
94.9325
21
-89.4715
0
LINE
8
BLACK
10
96.3295
20
-107.125
11
96.7105
21
-107.506
0
LINE
8
BLACK
10
96.7105
20
-107.125
11
96.3295
21
-107.506
0
LINE
8
BLACK
10
96.3295
20
-119.825
11
96.7105
21
-120.206
0
LINE
8
BLACK
10
96.7105
20
-119.825
11
96.3295
21
-120.206
0
LINE
8
BLACK
10
98.8695
20
-107.125
11
99.2505
21
-107.506
0
LINE
8
BLACK
10
99.2505
20
-107.125
11
98.8695
21
-107.506
0
LINE
8
BLACK
10
98.8695
20
-119.825
11
99.2505
21
-120.206
0
LINE
8
BLACK
10
99.2505
20
-119.825
11
98.8695
21
-120.206
0
LINE
8
BLACK
10
103.315
20
-110.427
11
103.696
21
-110.808
0
LINE
8
BLACK
10
103.696
20
-110.427
11
103.315
21
-110.808
0
LINE
8
BLACK
10
103.315
20
-118.745
11
103.696
21
-119.126
0
LINE
8
BLACK
10
103.696
20
-118.745
11
103.315
21
-119.126
0
LINE
8
BLACK
10
107.76
20
-98.6155
11
108.141
21
-98.9965
0
LINE
8
BLACK
10
108.141
20
-98.6155
11
107.76
21
-98.9965
0
LINE
8
BLACK
10
110.427
20
-84.2645
11
110.808
21
-84.6455
0
LINE
8
BLACK
10
110.808
20
-84.2645
11
110.427
21
-84.6455
0
LINE
8
BLACK
10
112.395
20
-112.713
11
112.776
21
-113.094
0
LINE
8
BLACK
10
112.776
20
-112.713
11
112.395
21
-113.094
0
LINE
8
BLACK
10
112.84
20
-98.4885
11
113.221
21
-98.8695
0
LINE
8
BLACK
10
113.221
20
-98.4885
11
112.84
21
-98.8695
0
LINE
8
BLACK
10
113.094
20
-93.6625
11
113.475
21
-94.0435
0
LINE
8
BLACK
10
113.475
20
-93.6625
11
113.094
21
-94.0435
0
LINE
8
BLACK
10
113.221
20
-91.059
11
113.602
21
-91.44
0
LINE
8
BLACK
10
113.602
20
-91.059
11
113.221
21
-91.44
0
LINE
8
BLACK
10
113.221
20
-92.2655
11
113.602
21
-92.6465
0
LINE
8
BLACK
10
113.602
20
-92.2655
11
113.221
21
-92.6465
0
LINE
8
BLACK
10
116.777
20
-110.363
11
117.158
21
-110.744
0
LINE
8
BLACK
10
117.158
20
-110.363
11
116.777
21
-110.744
0
LINE
8
BLACK
10
116.777
20
-118.809
11
117.158
21
-119.19
0
LINE
8
BLACK
10
117.158
20
-118.809
11
116.777
21
-119.19
0
CIRCLE
8
BLACK
10
96.012
20
-80.076
40
0.4064
0
CIRCLE
8
BLACK
10
98.552
20
-80.198
40
0.4064
0
CIRCLE
8
BLACK
10
101.092
20
-80.076
40
0.4064
0
CIRCLE
8
BLACK
10
103.632
20
-80.198
40
0.4064
0
CIRCLE
8
BLACK
10
106.172
20
-80.076
40
0.4064
0
CIRCLE
8
BLACK
10
113.858
20
-103.251
40
0.4064
0
CIRCLE
8
BLACK
10
113.98
20
-100.711
40
0.4064
0
CIRCLE
8
BLACK
10
113.98
20
-105.791
40
0.4064
0
LINE
8
BLACK
10
91.059
20
-82.7329
11
91.059
21
-83.7032
0
LINE
8
BLACK
10
90.5739
20
-83.218
11
91.5441
21
-83.218
0
LINE
8
BLACK
10
91.059
20
-84.7319
11
91.059
21
-85.7021
0
LINE
8
BLACK
10
90.5739
20
-85.217
11
91.5441
21
-85.217
0
LINE
8
BLACK
10
91.059
20
-86.7308
11
91.059
21
-87.7011
0
LINE
8
BLACK
10
90.5739
20
-87.216
11
91.5441
21
-87.216
0
LINE
8
BLACK
10
90.7396
20
-121.093
11
90.7396
21
-118.937
0
LINE
8
BLACK
10
90.7396
20
-118.937
11
88.5844
21
-118.937
0
LINE
8
BLACK
10
88.5844
20
-118.937
11
88.5844
21
-121.093
0
LINE
8
BLACK
10
88.5844
20
-121.093
11
90.7396
21
-121.093
0
LINE
8
BLACK
10
115.886
20
-82.8656
11
115.886
21
-80.7104
0
LINE
8
BLACK
10
115.886
20
-80.7104
11
113.73
21
-80.7104
0
LINE
8
BLACK
10
113.73
20
-80.7104
11
113.73
21
-82.8656
0
LINE
8
BLACK
10
113.73
20
-82.8656
11
115.886
21
-82.8656
  0
TEXT
  7
KICAD
  8
BLACK
  10
87.8088
  11
87.8088
  20
-127.239
  21
-127.239
  40
3
  41
1
  50
0
  51
0
  71
0
  72
0
  73
2
  1
Drill Map:
0
LINE
8
BLACK
10
85.4278
20
-133.349
11
85.8088
21
-133.73
0
LINE
8
BLACK
10
85.8088
20
-133.349
11
85.4278
21
-133.73
  0
TEXT
  7
KICAD
  8
BLACK
  10
87.8088
  11
87.8088
  20
-133.539
  21
-133.539
  40
3
  41
1
  50
0
  51
0
  71
0
  72
0
  73
2
  1
0.38mm / 0.015" (23 holes)
0
CIRCLE
8
BLACK
10
85.4024
20
-137.499
40
0.4064
  0
TEXT
  7
KICAD
  8
BLACK
  10
87.8088
  11
87.8088
  20
-137.499
  21
-137.499
  40
3
  41
1
  50
0
  51
0
  71
0
  72
0
  73
2
  1
0.81mm / 0.032" (8 holes)
0
LINE
8
BLACK
10
85.3237
20
-140.974
11
85.3237
21
-141.944
0
LINE
8
BLACK
10
84.8385
20
-141.459
11
85.8088
21
-141.459
  0
TEXT
  7
KICAD
  8
BLACK
  10
87.8088
  11
87.8088
  20
-141.459
  21
-141.459
  40
3
  41
1
  50
0
  51
0
  71
0
  72
0
  73
2
  1
0.97mm / 0.038" (3 holes)
0
LINE
8
BLACK
10
85.3625
20
-146.497
11
85.3625
21
-144.342
0
LINE
8
BLACK
10
85.3625
20
-144.342
11
83.2072
21
-144.342
0
LINE
8
BLACK
10
83.2072
20
-144.342
11
83.2072
21
-146.497
0
LINE
8
BLACK
10
83.2072
20
-146.497
11
85.3625
21
-146.497
  0
TEXT
  7
KICAD
  8
BLACK
  10
87.8088
  11
87.8088
  20
-145.419
  21
-145.419
  40
3
  41
1
  50
0
  51
0
  71
0
  72
0
  73
2
  1
3.05mm / 0.120" (2 holes)
  0
ENDSEC
  0
EOF
