G04 (created by PCBNEW (2013-07-07 BZR 4022)-stable) date 7/21/2013 7:03:44 PM*
%MOIN*%
G04 Gerber Fmt 3.4, Leading zero omitted, Abs format*
%FSLAX34Y34*%
G01*
G70*
G90*
G04 APERTURE LIST*
%ADD10C,0.00590551*%
%ADD11C,0.00985*%
%ADD12C,0.0099*%
%ADD13C,0.0079*%
%ADD14C,0.015*%
%ADD15C,0.01*%
%ADD16C,0.0026*%
%ADD17C,0.004*%
%ADD18C,0.0039*%
%ADD19C,0.005*%
%ADD20C,0.012*%
%ADD21C,0.0035*%
%ADD22C,0.0043*%
%ADD23C,0.006*%
G04 APERTURE END LIST*
G54D10*
G54D11*
X45703Y-40376D02*
X45665Y-40348D01*
X45609Y-40348D01*
X45553Y-40376D01*
X45515Y-40432D01*
X45496Y-40488D01*
X45478Y-40601D01*
X45478Y-40685D01*
X45496Y-40798D01*
X45515Y-40854D01*
X45553Y-40911D01*
X45609Y-40939D01*
X45646Y-40939D01*
X45703Y-40911D01*
X45721Y-40882D01*
X45721Y-40685D01*
X45646Y-40685D01*
X45443Y-39348D02*
X45668Y-39348D01*
X45556Y-39939D02*
X45556Y-39348D01*
X45762Y-39348D02*
X46025Y-39939D01*
X46025Y-39348D02*
X45762Y-39939D01*
X46250Y-39348D02*
X46325Y-39348D01*
X46362Y-39376D01*
X46400Y-39432D01*
X46419Y-39545D01*
X46419Y-39742D01*
X46400Y-39854D01*
X46362Y-39911D01*
X46325Y-39939D01*
X46250Y-39939D01*
X46212Y-39911D01*
X46175Y-39854D01*
X46156Y-39742D01*
X46156Y-39545D01*
X46175Y-39432D01*
X46212Y-39376D01*
X46250Y-39348D01*
X45690Y-41939D02*
X45559Y-41657D01*
X45465Y-41939D02*
X45465Y-41348D01*
X45615Y-41348D01*
X45653Y-41376D01*
X45671Y-41404D01*
X45690Y-41460D01*
X45690Y-41545D01*
X45671Y-41601D01*
X45653Y-41629D01*
X45615Y-41657D01*
X45465Y-41657D01*
X45821Y-41348D02*
X46084Y-41939D01*
X46084Y-41348D02*
X45821Y-41939D01*
X46234Y-41939D02*
X46234Y-41348D01*
X34520Y-34037D02*
X34520Y-34169D01*
X34210Y-34225D02*
X34210Y-34037D01*
X34801Y-34037D01*
X34801Y-34225D01*
X34604Y-34563D02*
X34126Y-34563D01*
X34070Y-34544D01*
X34041Y-34525D01*
X34013Y-34488D01*
X34013Y-34431D01*
X34041Y-34394D01*
X34238Y-34563D02*
X34210Y-34525D01*
X34210Y-34450D01*
X34238Y-34412D01*
X34267Y-34394D01*
X34323Y-34375D01*
X34492Y-34375D01*
X34548Y-34394D01*
X34576Y-34412D01*
X34604Y-34450D01*
X34604Y-34525D01*
X34576Y-34563D01*
X34604Y-34919D02*
X34126Y-34919D01*
X34070Y-34900D01*
X34041Y-34882D01*
X34013Y-34844D01*
X34013Y-34788D01*
X34041Y-34750D01*
X34238Y-34919D02*
X34210Y-34882D01*
X34210Y-34807D01*
X34238Y-34769D01*
X34267Y-34750D01*
X34323Y-34731D01*
X34492Y-34731D01*
X34548Y-34750D01*
X34576Y-34769D01*
X34604Y-34807D01*
X34604Y-34882D01*
X34576Y-34919D01*
X34210Y-35407D02*
X34801Y-35407D01*
X34801Y-35501D01*
X34773Y-35557D01*
X34717Y-35595D01*
X34661Y-35613D01*
X34548Y-35632D01*
X34464Y-35632D01*
X34351Y-35613D01*
X34295Y-35595D01*
X34238Y-35557D01*
X34210Y-35501D01*
X34210Y-35407D01*
X34210Y-35801D02*
X34604Y-35801D01*
X34492Y-35801D02*
X34548Y-35820D01*
X34576Y-35838D01*
X34604Y-35876D01*
X34604Y-35913D01*
X34210Y-36101D02*
X34238Y-36064D01*
X34267Y-36045D01*
X34323Y-36026D01*
X34492Y-36026D01*
X34548Y-36045D01*
X34576Y-36064D01*
X34604Y-36101D01*
X34604Y-36157D01*
X34576Y-36195D01*
X34548Y-36214D01*
X34492Y-36232D01*
X34323Y-36232D01*
X34267Y-36214D01*
X34238Y-36195D01*
X34210Y-36157D01*
X34210Y-36101D01*
X34604Y-36401D02*
X34013Y-36401D01*
X34576Y-36401D02*
X34604Y-36439D01*
X34604Y-36514D01*
X34576Y-36551D01*
X34548Y-36570D01*
X34492Y-36589D01*
X34323Y-36589D01*
X34267Y-36570D01*
X34238Y-36551D01*
X34210Y-36514D01*
X34210Y-36439D01*
X34238Y-36401D01*
X34379Y-37039D02*
X34379Y-37227D01*
X34210Y-37002D02*
X34801Y-37133D01*
X34210Y-37264D01*
X34238Y-37565D02*
X34210Y-37527D01*
X34210Y-37452D01*
X34238Y-37414D01*
X34267Y-37396D01*
X34323Y-37377D01*
X34492Y-37377D01*
X34548Y-37396D01*
X34576Y-37414D01*
X34604Y-37452D01*
X34604Y-37527D01*
X34576Y-37565D01*
X34238Y-37902D02*
X34210Y-37865D01*
X34210Y-37790D01*
X34238Y-37752D01*
X34267Y-37733D01*
X34323Y-37715D01*
X34492Y-37715D01*
X34548Y-37733D01*
X34576Y-37752D01*
X34604Y-37790D01*
X34604Y-37865D01*
X34576Y-37902D01*
X34238Y-38221D02*
X34210Y-38184D01*
X34210Y-38109D01*
X34238Y-38071D01*
X34295Y-38052D01*
X34520Y-38052D01*
X34576Y-38071D01*
X34604Y-38109D01*
X34604Y-38184D01*
X34576Y-38221D01*
X34520Y-38240D01*
X34464Y-38240D01*
X34407Y-38052D01*
X34210Y-38465D02*
X34238Y-38428D01*
X34295Y-38409D01*
X34801Y-38409D01*
X34238Y-38765D02*
X34210Y-38728D01*
X34210Y-38653D01*
X34238Y-38615D01*
X34295Y-38596D01*
X34520Y-38596D01*
X34576Y-38615D01*
X34604Y-38653D01*
X34604Y-38728D01*
X34576Y-38765D01*
X34520Y-38784D01*
X34464Y-38784D01*
X34407Y-38596D01*
X34210Y-38953D02*
X34604Y-38953D01*
X34492Y-38953D02*
X34548Y-38972D01*
X34576Y-38990D01*
X34604Y-39028D01*
X34604Y-39065D01*
X34210Y-39253D02*
X34238Y-39216D01*
X34267Y-39197D01*
X34323Y-39178D01*
X34492Y-39178D01*
X34548Y-39197D01*
X34576Y-39216D01*
X34604Y-39253D01*
X34604Y-39309D01*
X34576Y-39347D01*
X34548Y-39366D01*
X34492Y-39384D01*
X34323Y-39384D01*
X34267Y-39366D01*
X34238Y-39347D01*
X34210Y-39309D01*
X34210Y-39253D01*
X34210Y-39553D02*
X34604Y-39553D01*
X34548Y-39553D02*
X34576Y-39572D01*
X34604Y-39610D01*
X34604Y-39666D01*
X34576Y-39703D01*
X34520Y-39722D01*
X34210Y-39722D01*
X34520Y-39722D02*
X34576Y-39741D01*
X34604Y-39778D01*
X34604Y-39835D01*
X34576Y-39872D01*
X34520Y-39891D01*
X34210Y-39891D01*
X34238Y-40229D02*
X34210Y-40191D01*
X34210Y-40116D01*
X34238Y-40079D01*
X34295Y-40060D01*
X34520Y-40060D01*
X34576Y-40079D01*
X34604Y-40116D01*
X34604Y-40191D01*
X34576Y-40229D01*
X34520Y-40247D01*
X34464Y-40247D01*
X34407Y-40060D01*
X34604Y-40360D02*
X34604Y-40510D01*
X34801Y-40416D02*
X34295Y-40416D01*
X34238Y-40435D01*
X34210Y-40473D01*
X34210Y-40510D01*
X34238Y-40792D02*
X34210Y-40754D01*
X34210Y-40679D01*
X34238Y-40641D01*
X34295Y-40623D01*
X34520Y-40623D01*
X34576Y-40641D01*
X34604Y-40679D01*
X34604Y-40754D01*
X34576Y-40792D01*
X34520Y-40810D01*
X34464Y-40810D01*
X34407Y-40623D01*
X34210Y-40979D02*
X34604Y-40979D01*
X34492Y-40979D02*
X34548Y-40998D01*
X34576Y-41017D01*
X34604Y-41054D01*
X34604Y-41092D01*
X34210Y-41748D02*
X34492Y-41617D01*
X34210Y-41523D02*
X34801Y-41523D01*
X34801Y-41673D01*
X34773Y-41711D01*
X34745Y-41730D01*
X34689Y-41748D01*
X34604Y-41748D01*
X34548Y-41730D01*
X34520Y-41711D01*
X34492Y-41673D01*
X34492Y-41523D01*
X34238Y-42067D02*
X34210Y-42030D01*
X34210Y-41955D01*
X34238Y-41917D01*
X34295Y-41899D01*
X34520Y-41899D01*
X34576Y-41917D01*
X34604Y-41955D01*
X34604Y-42030D01*
X34576Y-42067D01*
X34520Y-42086D01*
X34464Y-42086D01*
X34407Y-41899D01*
X34604Y-42217D02*
X34210Y-42311D01*
X34604Y-42405D01*
X34267Y-43081D02*
X34238Y-43062D01*
X34210Y-43005D01*
X34210Y-42968D01*
X34238Y-42912D01*
X34295Y-42874D01*
X34351Y-42855D01*
X34464Y-42837D01*
X34548Y-42837D01*
X34661Y-42855D01*
X34717Y-42874D01*
X34773Y-42912D01*
X34801Y-42968D01*
X34801Y-43005D01*
X34773Y-43062D01*
X34745Y-43081D01*
G54D12*
G54D13*
X40723Y-47650D02*
X40723Y-42414D01*
X40723Y-42414D02*
X46077Y-42414D01*
X46077Y-42414D02*
X46077Y-47650D01*
X46077Y-47650D02*
X40723Y-47650D01*
G54D14*
X36110Y-43253D02*
X36110Y-46167D01*
X36110Y-46167D02*
X39811Y-46167D01*
X39811Y-46167D02*
X39811Y-43332D01*
X39811Y-43332D02*
X39811Y-43253D01*
X39811Y-43253D02*
X36110Y-43253D01*
G54D15*
X44377Y-41122D02*
X45322Y-41122D01*
X45322Y-42067D02*
X45322Y-39153D01*
X45322Y-39153D02*
X44456Y-39153D01*
X44456Y-39153D02*
X44377Y-39153D01*
X44377Y-39153D02*
X44377Y-42146D01*
X44377Y-42146D02*
X45322Y-42146D01*
X45322Y-42146D02*
X45322Y-42067D01*
X45122Y-37900D02*
G75*
G03X45122Y-37900I-78J0D01*
G74*
G01*
G54D13*
X45634Y-37309D02*
X45634Y-38491D01*
X45634Y-38491D02*
X43666Y-38491D01*
X43666Y-38491D02*
X43666Y-37309D01*
X43666Y-37309D02*
X45634Y-37309D01*
G54D14*
X38307Y-31050D02*
X38307Y-32050D01*
X42300Y-32050D02*
X37300Y-32050D01*
X37300Y-32050D02*
X37300Y-31050D01*
X37300Y-31050D02*
X42300Y-31050D01*
X42300Y-31050D02*
X42300Y-32050D01*
G54D16*
X35461Y-37211D02*
X35461Y-37289D01*
X35461Y-37289D02*
X35539Y-37289D01*
X35539Y-37211D02*
X35539Y-37289D01*
X35461Y-37211D02*
X35539Y-37211D01*
X35225Y-37427D02*
X35225Y-37564D01*
X35225Y-37564D02*
X35323Y-37564D01*
X35323Y-37427D02*
X35323Y-37564D01*
X35225Y-37427D02*
X35323Y-37427D01*
X35225Y-37564D02*
X35225Y-37604D01*
X35225Y-37604D02*
X35696Y-37604D01*
X35696Y-37564D02*
X35696Y-37604D01*
X35225Y-37564D02*
X35696Y-37564D01*
X35716Y-37564D02*
X35716Y-37604D01*
X35716Y-37604D02*
X35775Y-37604D01*
X35775Y-37564D02*
X35775Y-37604D01*
X35716Y-37564D02*
X35775Y-37564D01*
X35225Y-36896D02*
X35225Y-36936D01*
X35225Y-36936D02*
X35696Y-36936D01*
X35696Y-36896D02*
X35696Y-36936D01*
X35225Y-36896D02*
X35696Y-36896D01*
X35716Y-36896D02*
X35716Y-36936D01*
X35716Y-36936D02*
X35775Y-36936D01*
X35775Y-36896D02*
X35775Y-36936D01*
X35716Y-36896D02*
X35775Y-36896D01*
X35225Y-37427D02*
X35225Y-37486D01*
X35225Y-37486D02*
X35323Y-37486D01*
X35323Y-37427D02*
X35323Y-37486D01*
X35225Y-37427D02*
X35323Y-37427D01*
G54D17*
X35205Y-37860D02*
X35205Y-36640D01*
X35205Y-36640D02*
X35795Y-36640D01*
X35795Y-36640D02*
X35795Y-37860D01*
X35795Y-37860D02*
X35205Y-37860D01*
X35303Y-37034D02*
G75*
G03X35304Y-37466I196J-215D01*
G74*
G01*
X35696Y-37034D02*
G75*
G03X35304Y-37033I-196J-215D01*
G74*
G01*
X35696Y-37465D02*
G75*
G03X35695Y-37033I-196J215D01*
G74*
G01*
X35303Y-37465D02*
G75*
G03X35695Y-37466I196J215D01*
G74*
G01*
G54D16*
X35461Y-39761D02*
X35461Y-39839D01*
X35461Y-39839D02*
X35539Y-39839D01*
X35539Y-39761D02*
X35539Y-39839D01*
X35461Y-39761D02*
X35539Y-39761D01*
X35225Y-39977D02*
X35225Y-40114D01*
X35225Y-40114D02*
X35323Y-40114D01*
X35323Y-39977D02*
X35323Y-40114D01*
X35225Y-39977D02*
X35323Y-39977D01*
X35225Y-40114D02*
X35225Y-40154D01*
X35225Y-40154D02*
X35696Y-40154D01*
X35696Y-40114D02*
X35696Y-40154D01*
X35225Y-40114D02*
X35696Y-40114D01*
X35716Y-40114D02*
X35716Y-40154D01*
X35716Y-40154D02*
X35775Y-40154D01*
X35775Y-40114D02*
X35775Y-40154D01*
X35716Y-40114D02*
X35775Y-40114D01*
X35225Y-39446D02*
X35225Y-39486D01*
X35225Y-39486D02*
X35696Y-39486D01*
X35696Y-39446D02*
X35696Y-39486D01*
X35225Y-39446D02*
X35696Y-39446D01*
X35716Y-39446D02*
X35716Y-39486D01*
X35716Y-39486D02*
X35775Y-39486D01*
X35775Y-39446D02*
X35775Y-39486D01*
X35716Y-39446D02*
X35775Y-39446D01*
X35225Y-39977D02*
X35225Y-40036D01*
X35225Y-40036D02*
X35323Y-40036D01*
X35323Y-39977D02*
X35323Y-40036D01*
X35225Y-39977D02*
X35323Y-39977D01*
G54D17*
X35205Y-40410D02*
X35205Y-39190D01*
X35205Y-39190D02*
X35795Y-39190D01*
X35795Y-39190D02*
X35795Y-40410D01*
X35795Y-40410D02*
X35205Y-40410D01*
X35303Y-39584D02*
G75*
G03X35304Y-40016I196J-215D01*
G74*
G01*
X35696Y-39584D02*
G75*
G03X35304Y-39583I-196J-215D01*
G74*
G01*
X35696Y-40015D02*
G75*
G03X35695Y-39583I-196J215D01*
G74*
G01*
X35303Y-40015D02*
G75*
G03X35695Y-40016I196J215D01*
G74*
G01*
G54D18*
X37150Y-39800D02*
G75*
G03X37150Y-39800I-50J0D01*
G74*
G01*
X37100Y-39350D02*
X37100Y-39750D01*
X37100Y-39750D02*
X36500Y-39750D01*
X36500Y-39750D02*
X36500Y-39350D01*
X36500Y-38950D02*
X36500Y-38550D01*
X36500Y-38550D02*
X37100Y-38550D01*
X37100Y-38550D02*
X37100Y-38950D01*
X36750Y-40750D02*
G75*
G03X36750Y-40750I-50J0D01*
G74*
G01*
X36700Y-41200D02*
X36700Y-40800D01*
X36700Y-40800D02*
X37300Y-40800D01*
X37300Y-40800D02*
X37300Y-41200D01*
X37300Y-41600D02*
X37300Y-42000D01*
X37300Y-42000D02*
X36700Y-42000D01*
X36700Y-42000D02*
X36700Y-41600D01*
X37750Y-40750D02*
G75*
G03X37750Y-40750I-50J0D01*
G74*
G01*
X37700Y-41200D02*
X37700Y-40800D01*
X37700Y-40800D02*
X38300Y-40800D01*
X38300Y-40800D02*
X38300Y-41200D01*
X38300Y-41600D02*
X38300Y-42000D01*
X38300Y-42000D02*
X37700Y-42000D01*
X37700Y-42000D02*
X37700Y-41600D01*
X38750Y-40750D02*
G75*
G03X38750Y-40750I-50J0D01*
G74*
G01*
X38700Y-41200D02*
X38700Y-40800D01*
X38700Y-40800D02*
X39300Y-40800D01*
X39300Y-40800D02*
X39300Y-41200D01*
X39300Y-41600D02*
X39300Y-42000D01*
X39300Y-42000D02*
X38700Y-42000D01*
X38700Y-42000D02*
X38700Y-41600D01*
G54D14*
X46100Y-32200D02*
G75*
G03X46100Y-32200I-900J0D01*
G74*
G01*
X36200Y-47250D02*
G75*
G03X36200Y-47250I-900J0D01*
G74*
G01*
G54D19*
X39100Y-32450D02*
G75*
G03X39100Y-32450I-50J0D01*
G74*
G01*
X38600Y-32450D02*
X39000Y-32450D01*
X39000Y-32450D02*
X39000Y-33050D01*
X39000Y-33050D02*
X38600Y-33050D01*
X38200Y-33050D02*
X37800Y-33050D01*
X37800Y-33050D02*
X37800Y-32450D01*
X37800Y-32450D02*
X38200Y-32450D01*
X36200Y-38200D02*
G75*
G03X36200Y-38200I-50J0D01*
G74*
G01*
X36600Y-38200D02*
X36200Y-38200D01*
X36200Y-38200D02*
X36200Y-37600D01*
X36200Y-37600D02*
X36600Y-37600D01*
X37000Y-37600D02*
X37400Y-37600D01*
X37400Y-37600D02*
X37400Y-38200D01*
X37400Y-38200D02*
X37000Y-38200D01*
X35850Y-42250D02*
G75*
G03X35850Y-42250I-50J0D01*
G74*
G01*
X35800Y-41800D02*
X35800Y-42200D01*
X35800Y-42200D02*
X35200Y-42200D01*
X35200Y-42200D02*
X35200Y-41800D01*
X35200Y-41400D02*
X35200Y-41000D01*
X35200Y-41000D02*
X35800Y-41000D01*
X35800Y-41000D02*
X35800Y-41400D01*
X42950Y-36250D02*
G75*
G03X42950Y-36250I-50J0D01*
G74*
G01*
X42900Y-35800D02*
X42900Y-36200D01*
X42900Y-36200D02*
X42300Y-36200D01*
X42300Y-36200D02*
X42300Y-35800D01*
X42300Y-35400D02*
X42300Y-35000D01*
X42300Y-35000D02*
X42900Y-35000D01*
X42900Y-35000D02*
X42900Y-35400D01*
X43300Y-33600D02*
G75*
G03X43300Y-33600I-50J0D01*
G74*
G01*
X43250Y-34050D02*
X43250Y-33650D01*
X43250Y-33650D02*
X43850Y-33650D01*
X43850Y-33650D02*
X43850Y-34050D01*
X43850Y-34450D02*
X43850Y-34850D01*
X43850Y-34850D02*
X43250Y-34850D01*
X43250Y-34850D02*
X43250Y-34450D01*
X42250Y-37400D02*
G75*
G03X42250Y-37400I-50J0D01*
G74*
G01*
X42200Y-37850D02*
X42200Y-37450D01*
X42200Y-37450D02*
X42800Y-37450D01*
X42800Y-37450D02*
X42800Y-37850D01*
X42800Y-38250D02*
X42800Y-38650D01*
X42800Y-38650D02*
X42200Y-38650D01*
X42200Y-38650D02*
X42200Y-38250D01*
X36950Y-35800D02*
G75*
G03X36950Y-35800I-50J0D01*
G74*
G01*
X36900Y-36250D02*
X36900Y-35850D01*
X36900Y-35850D02*
X37500Y-35850D01*
X37500Y-35850D02*
X37500Y-36250D01*
X37500Y-36650D02*
X37500Y-37050D01*
X37500Y-37050D02*
X36900Y-37050D01*
X36900Y-37050D02*
X36900Y-36650D01*
X45650Y-36950D02*
G75*
G03X45650Y-36950I-50J0D01*
G74*
G01*
X45600Y-36500D02*
X45600Y-36900D01*
X45600Y-36900D02*
X45000Y-36900D01*
X45000Y-36900D02*
X45000Y-36500D01*
X45000Y-36100D02*
X45000Y-35700D01*
X45000Y-35700D02*
X45600Y-35700D01*
X45600Y-35700D02*
X45600Y-36100D01*
X44400Y-36950D02*
G75*
G03X44400Y-36950I-50J0D01*
G74*
G01*
X44350Y-36500D02*
X44350Y-36900D01*
X44350Y-36900D02*
X43750Y-36900D01*
X43750Y-36900D02*
X43750Y-36500D01*
X43750Y-36100D02*
X43750Y-35700D01*
X43750Y-35700D02*
X44350Y-35700D01*
X44350Y-35700D02*
X44350Y-36100D01*
G54D20*
X40800Y-40400D02*
X38300Y-40400D01*
X38300Y-40400D02*
X38300Y-33400D01*
X38300Y-33400D02*
X41300Y-33400D01*
X41300Y-33400D02*
X41300Y-40400D01*
X41300Y-40400D02*
X40800Y-40400D01*
X40050Y-33400D02*
X40050Y-33900D01*
X40050Y-33900D02*
X39550Y-33900D01*
X39550Y-33900D02*
X39550Y-33400D01*
G54D13*
X35023Y-32881D02*
X34039Y-32881D01*
X34039Y-32881D02*
X34039Y-33432D01*
X34039Y-33432D02*
X35023Y-33432D01*
X35023Y-31542D02*
X35023Y-35558D01*
X35023Y-35558D02*
X36677Y-35558D01*
X36677Y-35558D02*
X36677Y-31542D01*
X36677Y-31542D02*
X35023Y-31542D01*
G54D15*
X44224Y-41563D02*
X43831Y-42114D01*
X43831Y-41563D02*
X44224Y-42114D01*
X42650Y-40225D02*
X42413Y-39910D01*
X42650Y-40540D02*
X42650Y-40225D01*
X42650Y-40225D02*
X42886Y-39910D01*
X42964Y-41091D02*
X42650Y-40697D01*
X42650Y-40697D02*
X42335Y-41091D01*
X43358Y-42114D02*
X43358Y-41485D01*
X43358Y-41485D02*
X43752Y-41800D01*
X43752Y-41800D02*
X43358Y-42114D01*
X42964Y-41091D02*
X42886Y-41091D01*
X42335Y-41091D02*
X42886Y-41091D01*
X42964Y-41800D02*
X43358Y-41800D01*
X42650Y-41485D02*
X42650Y-41091D01*
G54D14*
X42728Y-41800D02*
G75*
G03X42728Y-41800I-78J0D01*
G74*
G01*
G54D15*
X42984Y-41800D02*
G75*
G03X42984Y-41800I-334J0D01*
G74*
G01*
G54D20*
X42942Y-47092D02*
X42942Y-47492D01*
X42685Y-47092D02*
X42685Y-47407D01*
X42714Y-47464D01*
X42771Y-47492D01*
X42857Y-47492D01*
X42914Y-47464D01*
X42942Y-47435D01*
X43200Y-47464D02*
X43285Y-47492D01*
X43428Y-47492D01*
X43485Y-47464D01*
X43514Y-47435D01*
X43542Y-47378D01*
X43542Y-47321D01*
X43514Y-47264D01*
X43485Y-47235D01*
X43428Y-47207D01*
X43314Y-47178D01*
X43257Y-47150D01*
X43228Y-47121D01*
X43200Y-47064D01*
X43200Y-47007D01*
X43228Y-46950D01*
X43257Y-46921D01*
X43314Y-46892D01*
X43457Y-46892D01*
X43542Y-46921D01*
X43800Y-47492D02*
X43800Y-46892D01*
X43942Y-46892D01*
X44028Y-46921D01*
X44085Y-46978D01*
X44114Y-47035D01*
X44142Y-47150D01*
X44142Y-47235D01*
X44114Y-47350D01*
X44085Y-47407D01*
X44028Y-47464D01*
X43942Y-47492D01*
X43800Y-47492D01*
X36914Y-45550D02*
X36942Y-45464D01*
X36942Y-45321D01*
X36914Y-45264D01*
X36885Y-45235D01*
X36828Y-45207D01*
X36771Y-45207D01*
X36714Y-45235D01*
X36685Y-45264D01*
X36657Y-45321D01*
X36628Y-45435D01*
X36600Y-45492D01*
X36571Y-45521D01*
X36514Y-45550D01*
X36457Y-45550D01*
X36400Y-45521D01*
X36371Y-45492D01*
X36342Y-45435D01*
X36342Y-45292D01*
X36371Y-45207D01*
X36342Y-45007D02*
X36942Y-44864D01*
X36514Y-44750D01*
X36942Y-44635D01*
X36342Y-44492D01*
X36400Y-44292D02*
X36371Y-44264D01*
X36342Y-44207D01*
X36342Y-44064D01*
X36371Y-44007D01*
X36400Y-43978D01*
X36457Y-43950D01*
X36514Y-43950D01*
X36600Y-43978D01*
X36942Y-44321D01*
X36942Y-43950D01*
G54D19*
X45359Y-38939D02*
X45395Y-38951D01*
X45454Y-38951D01*
X45478Y-38939D01*
X45490Y-38927D01*
X45502Y-38903D01*
X45502Y-38879D01*
X45490Y-38855D01*
X45478Y-38844D01*
X45454Y-38832D01*
X45407Y-38820D01*
X45383Y-38808D01*
X45371Y-38796D01*
X45359Y-38772D01*
X45359Y-38748D01*
X45371Y-38725D01*
X45383Y-38713D01*
X45407Y-38701D01*
X45466Y-38701D01*
X45502Y-38713D01*
X45740Y-38951D02*
X45597Y-38951D01*
X45669Y-38951D02*
X45669Y-38701D01*
X45645Y-38736D01*
X45621Y-38760D01*
X45597Y-38772D01*
G54D21*
X36221Y-37571D02*
X35921Y-37571D01*
X35921Y-37500D01*
X35935Y-37457D01*
X35964Y-37428D01*
X35992Y-37414D01*
X36050Y-37400D01*
X36092Y-37400D01*
X36150Y-37414D01*
X36178Y-37428D01*
X36207Y-37457D01*
X36221Y-37500D01*
X36221Y-37571D01*
X35950Y-37285D02*
X35935Y-37271D01*
X35921Y-37242D01*
X35921Y-37171D01*
X35935Y-37142D01*
X35950Y-37128D01*
X35978Y-37114D01*
X36007Y-37114D01*
X36050Y-37128D01*
X36221Y-37300D01*
X36221Y-37114D01*
X35021Y-37442D02*
X35021Y-37585D01*
X34721Y-37585D01*
X34864Y-37342D02*
X34864Y-37242D01*
X35021Y-37200D02*
X35021Y-37342D01*
X34721Y-37342D01*
X34721Y-37200D01*
X35021Y-37071D02*
X34721Y-37071D01*
X34721Y-37000D01*
X34735Y-36957D01*
X34764Y-36928D01*
X34792Y-36914D01*
X34850Y-36900D01*
X34892Y-36900D01*
X34950Y-36914D01*
X34978Y-36928D01*
X35007Y-36957D01*
X35021Y-37000D01*
X35021Y-37071D01*
X36221Y-40121D02*
X35921Y-40121D01*
X35921Y-40050D01*
X35935Y-40007D01*
X35964Y-39978D01*
X35992Y-39964D01*
X36050Y-39950D01*
X36092Y-39950D01*
X36150Y-39964D01*
X36178Y-39978D01*
X36207Y-40007D01*
X36221Y-40050D01*
X36221Y-40121D01*
X36221Y-39664D02*
X36221Y-39835D01*
X36221Y-39750D02*
X35921Y-39750D01*
X35964Y-39778D01*
X35992Y-39807D01*
X36007Y-39835D01*
X35021Y-39992D02*
X35021Y-40135D01*
X34721Y-40135D01*
X34864Y-39892D02*
X34864Y-39792D01*
X35021Y-39750D02*
X35021Y-39892D01*
X34721Y-39892D01*
X34721Y-39750D01*
X35021Y-39621D02*
X34721Y-39621D01*
X34721Y-39550D01*
X34735Y-39507D01*
X34764Y-39478D01*
X34792Y-39464D01*
X34850Y-39450D01*
X34892Y-39450D01*
X34950Y-39464D01*
X34978Y-39478D01*
X35007Y-39507D01*
X35021Y-39550D01*
X35021Y-39621D01*
G54D22*
X36735Y-39182D02*
X36745Y-39192D01*
X36754Y-39220D01*
X36754Y-39239D01*
X36745Y-39267D01*
X36726Y-39286D01*
X36707Y-39295D01*
X36670Y-39304D01*
X36642Y-39304D01*
X36604Y-39295D01*
X36585Y-39286D01*
X36567Y-39267D01*
X36557Y-39239D01*
X36557Y-39220D01*
X36567Y-39192D01*
X36576Y-39182D01*
X36557Y-39004D02*
X36557Y-39098D01*
X36651Y-39107D01*
X36642Y-39098D01*
X36632Y-39079D01*
X36632Y-39032D01*
X36642Y-39013D01*
X36651Y-39004D01*
X36670Y-38995D01*
X36717Y-38995D01*
X36735Y-39004D01*
X36745Y-39013D01*
X36754Y-39032D01*
X36754Y-39079D01*
X36745Y-39098D01*
X36735Y-39107D01*
X36832Y-39473D02*
X36832Y-39454D01*
X36842Y-39436D01*
X36851Y-39426D01*
X36870Y-39417D01*
X36907Y-39407D01*
X36954Y-39407D01*
X36992Y-39417D01*
X37010Y-39426D01*
X37020Y-39436D01*
X37029Y-39454D01*
X37029Y-39473D01*
X37020Y-39492D01*
X37010Y-39501D01*
X36992Y-39511D01*
X36954Y-39520D01*
X36907Y-39520D01*
X36870Y-39511D01*
X36851Y-39501D01*
X36842Y-39492D01*
X36832Y-39473D01*
X37010Y-39323D02*
X37020Y-39314D01*
X37029Y-39323D01*
X37020Y-39332D01*
X37010Y-39323D01*
X37029Y-39323D01*
X37029Y-39126D02*
X37029Y-39239D01*
X37029Y-39182D02*
X36832Y-39182D01*
X36860Y-39201D01*
X36879Y-39220D01*
X36889Y-39239D01*
X36898Y-38957D02*
X37029Y-38957D01*
X36898Y-39042D02*
X37001Y-39042D01*
X37020Y-39032D01*
X37029Y-39013D01*
X37029Y-38985D01*
X37020Y-38967D01*
X37010Y-38957D01*
X36926Y-38798D02*
X36926Y-38863D01*
X37029Y-38863D02*
X36832Y-38863D01*
X36832Y-38770D01*
X36579Y-41432D02*
X36485Y-41498D01*
X36579Y-41545D02*
X36382Y-41545D01*
X36382Y-41470D01*
X36392Y-41451D01*
X36401Y-41442D01*
X36420Y-41432D01*
X36448Y-41432D01*
X36467Y-41442D01*
X36476Y-41451D01*
X36485Y-41470D01*
X36485Y-41545D01*
X36382Y-41263D02*
X36382Y-41301D01*
X36392Y-41320D01*
X36401Y-41329D01*
X36429Y-41348D01*
X36467Y-41357D01*
X36542Y-41357D01*
X36560Y-41348D01*
X36570Y-41339D01*
X36579Y-41320D01*
X36579Y-41282D01*
X36570Y-41263D01*
X36560Y-41254D01*
X36542Y-41245D01*
X36495Y-41245D01*
X36476Y-41254D01*
X36467Y-41263D01*
X36457Y-41282D01*
X36457Y-41320D01*
X36467Y-41339D01*
X36476Y-41348D01*
X36495Y-41357D01*
X37967Y-40679D02*
X37901Y-40585D01*
X37854Y-40679D02*
X37854Y-40482D01*
X37929Y-40482D01*
X37948Y-40492D01*
X37957Y-40501D01*
X37967Y-40520D01*
X37967Y-40548D01*
X37957Y-40567D01*
X37948Y-40576D01*
X37929Y-40585D01*
X37854Y-40585D01*
X38032Y-40482D02*
X38164Y-40482D01*
X38079Y-40679D01*
X39679Y-41432D02*
X39585Y-41498D01*
X39679Y-41545D02*
X39482Y-41545D01*
X39482Y-41470D01*
X39492Y-41451D01*
X39501Y-41442D01*
X39520Y-41432D01*
X39548Y-41432D01*
X39567Y-41442D01*
X39576Y-41451D01*
X39585Y-41470D01*
X39585Y-41545D01*
X39567Y-41320D02*
X39557Y-41339D01*
X39548Y-41348D01*
X39529Y-41357D01*
X39520Y-41357D01*
X39501Y-41348D01*
X39492Y-41339D01*
X39482Y-41320D01*
X39482Y-41282D01*
X39492Y-41263D01*
X39501Y-41254D01*
X39520Y-41245D01*
X39529Y-41245D01*
X39548Y-41254D01*
X39557Y-41263D01*
X39567Y-41282D01*
X39567Y-41320D01*
X39576Y-41339D01*
X39585Y-41348D01*
X39604Y-41357D01*
X39642Y-41357D01*
X39660Y-41348D01*
X39670Y-41339D01*
X39679Y-41320D01*
X39679Y-41282D01*
X39670Y-41263D01*
X39660Y-41254D01*
X39642Y-41245D01*
X39604Y-41245D01*
X39585Y-41254D01*
X39576Y-41263D01*
X39567Y-41282D01*
G54D19*
X39485Y-32791D02*
X39366Y-32875D01*
X39485Y-32934D02*
X39235Y-32934D01*
X39235Y-32839D01*
X39247Y-32815D01*
X39259Y-32803D01*
X39282Y-32791D01*
X39318Y-32791D01*
X39342Y-32803D01*
X39354Y-32815D01*
X39366Y-32839D01*
X39366Y-32934D01*
X39235Y-32565D02*
X39235Y-32684D01*
X39354Y-32696D01*
X39342Y-32684D01*
X39330Y-32660D01*
X39330Y-32601D01*
X39342Y-32577D01*
X39354Y-32565D01*
X39378Y-32553D01*
X39437Y-32553D01*
X39461Y-32565D01*
X39473Y-32577D01*
X39485Y-32601D01*
X39485Y-32660D01*
X39473Y-32684D01*
X39461Y-32696D01*
X36758Y-38601D02*
X36675Y-38482D01*
X36615Y-38601D02*
X36615Y-38351D01*
X36710Y-38351D01*
X36734Y-38363D01*
X36746Y-38375D01*
X36758Y-38398D01*
X36758Y-38434D01*
X36746Y-38458D01*
X36734Y-38470D01*
X36710Y-38482D01*
X36615Y-38482D01*
X36972Y-38434D02*
X36972Y-38601D01*
X36913Y-38339D02*
X36853Y-38517D01*
X37008Y-38517D01*
X36201Y-41641D02*
X36082Y-41725D01*
X36201Y-41784D02*
X35951Y-41784D01*
X35951Y-41689D01*
X35963Y-41665D01*
X35975Y-41653D01*
X35998Y-41641D01*
X36034Y-41641D01*
X36058Y-41653D01*
X36070Y-41665D01*
X36082Y-41689D01*
X36082Y-41784D01*
X35951Y-41558D02*
X35951Y-41403D01*
X36046Y-41486D01*
X36046Y-41451D01*
X36058Y-41427D01*
X36070Y-41415D01*
X36094Y-41403D01*
X36153Y-41403D01*
X36177Y-41415D01*
X36189Y-41427D01*
X36201Y-41451D01*
X36201Y-41522D01*
X36189Y-41546D01*
X36177Y-41558D01*
X43251Y-35641D02*
X43132Y-35725D01*
X43251Y-35784D02*
X43001Y-35784D01*
X43001Y-35689D01*
X43013Y-35665D01*
X43025Y-35653D01*
X43048Y-35641D01*
X43084Y-35641D01*
X43108Y-35653D01*
X43120Y-35665D01*
X43132Y-35689D01*
X43132Y-35784D01*
X43025Y-35546D02*
X43013Y-35534D01*
X43001Y-35510D01*
X43001Y-35451D01*
X43013Y-35427D01*
X43025Y-35415D01*
X43048Y-35403D01*
X43072Y-35403D01*
X43108Y-35415D01*
X43251Y-35558D01*
X43251Y-35403D01*
X43508Y-33465D02*
X43425Y-33346D01*
X43365Y-33465D02*
X43365Y-33215D01*
X43460Y-33215D01*
X43484Y-33227D01*
X43496Y-33239D01*
X43508Y-33262D01*
X43508Y-33298D01*
X43496Y-33322D01*
X43484Y-33334D01*
X43460Y-33346D01*
X43365Y-33346D01*
X43746Y-33465D02*
X43603Y-33465D01*
X43675Y-33465D02*
X43675Y-33215D01*
X43651Y-33250D01*
X43627Y-33274D01*
X43603Y-33286D01*
X42758Y-39227D02*
X42746Y-39239D01*
X42710Y-39251D01*
X42686Y-39251D01*
X42651Y-39239D01*
X42627Y-39215D01*
X42615Y-39191D01*
X42603Y-39144D01*
X42603Y-39108D01*
X42615Y-39060D01*
X42627Y-39036D01*
X42651Y-39013D01*
X42686Y-39001D01*
X42710Y-39001D01*
X42746Y-39013D01*
X42758Y-39025D01*
X42972Y-39084D02*
X42972Y-39251D01*
X42913Y-38989D02*
X42853Y-39167D01*
X43008Y-39167D01*
X37158Y-35642D02*
X37146Y-35654D01*
X37110Y-35666D01*
X37086Y-35666D01*
X37051Y-35654D01*
X37027Y-35630D01*
X37015Y-35606D01*
X37003Y-35559D01*
X37003Y-35523D01*
X37015Y-35475D01*
X37027Y-35451D01*
X37051Y-35428D01*
X37086Y-35416D01*
X37110Y-35416D01*
X37146Y-35428D01*
X37158Y-35440D01*
X37241Y-35416D02*
X37396Y-35416D01*
X37313Y-35511D01*
X37348Y-35511D01*
X37372Y-35523D01*
X37384Y-35535D01*
X37396Y-35559D01*
X37396Y-35618D01*
X37384Y-35642D01*
X37372Y-35654D01*
X37348Y-35666D01*
X37277Y-35666D01*
X37253Y-35654D01*
X37241Y-35642D01*
X45258Y-35577D02*
X45246Y-35589D01*
X45210Y-35601D01*
X45186Y-35601D01*
X45151Y-35589D01*
X45127Y-35565D01*
X45115Y-35541D01*
X45103Y-35494D01*
X45103Y-35458D01*
X45115Y-35410D01*
X45127Y-35386D01*
X45151Y-35363D01*
X45186Y-35351D01*
X45210Y-35351D01*
X45246Y-35363D01*
X45258Y-35375D01*
X45353Y-35375D02*
X45365Y-35363D01*
X45389Y-35351D01*
X45448Y-35351D01*
X45472Y-35363D01*
X45484Y-35375D01*
X45496Y-35398D01*
X45496Y-35422D01*
X45484Y-35458D01*
X45341Y-35601D01*
X45496Y-35601D01*
X44008Y-35577D02*
X43996Y-35589D01*
X43960Y-35601D01*
X43936Y-35601D01*
X43901Y-35589D01*
X43877Y-35565D01*
X43865Y-35541D01*
X43853Y-35494D01*
X43853Y-35458D01*
X43865Y-35410D01*
X43877Y-35386D01*
X43901Y-35363D01*
X43936Y-35351D01*
X43960Y-35351D01*
X43996Y-35363D01*
X44008Y-35375D01*
X44246Y-35601D02*
X44103Y-35601D01*
X44175Y-35601D02*
X44175Y-35351D01*
X44151Y-35386D01*
X44127Y-35410D01*
X44103Y-35422D01*
G54D23*
X38555Y-33589D02*
X38555Y-34075D01*
X38584Y-34132D01*
X38613Y-34161D01*
X38670Y-34189D01*
X38784Y-34189D01*
X38841Y-34161D01*
X38870Y-34132D01*
X38898Y-34075D01*
X38898Y-33589D01*
X39498Y-34189D02*
X39155Y-34189D01*
X39327Y-34189D02*
X39327Y-33589D01*
X39270Y-33675D01*
X39213Y-33732D01*
X39155Y-33761D01*
X35316Y-32092D02*
X35373Y-32111D01*
X35469Y-32111D01*
X35507Y-32092D01*
X35526Y-32073D01*
X35545Y-32035D01*
X35545Y-31997D01*
X35526Y-31959D01*
X35507Y-31940D01*
X35469Y-31921D01*
X35392Y-31902D01*
X35354Y-31883D01*
X35335Y-31864D01*
X35316Y-31826D01*
X35316Y-31788D01*
X35335Y-31750D01*
X35354Y-31730D01*
X35392Y-31711D01*
X35488Y-31711D01*
X35545Y-31730D01*
X35678Y-31711D02*
X35773Y-32111D01*
X35850Y-31826D01*
X35926Y-32111D01*
X36021Y-31711D01*
X36383Y-32111D02*
X36154Y-32111D01*
X36269Y-32111D02*
X36269Y-31711D01*
X36230Y-31769D01*
X36192Y-31807D01*
X36154Y-31826D01*
M02*
