G04 (created by PCBNEW (2013-07-07 BZR 4022)-stable) date 7/21/2013 7:03:44 PM*
%MOIN*%
G04 Gerber Fmt 3.4, Leading zero omitted, Abs format*
%FSLAX34Y34*%
G01*
G70*
G90*
G04 APERTURE LIST*
%ADD10C,0.00590551*%
%ADD11C,0.055*%
%ADD12C,0.16*%
%ADD13R,0.129528X0.129528*%
%ADD14C,0.06*%
%ADD15C,0.025*%
%ADD16C,0.008*%
G04 APERTURE END LIST*
G54D10*
G54D11*
X44874Y-41650D03*
X44826Y-40650D03*
X44874Y-39650D03*
X37800Y-31526D03*
X38800Y-31574D03*
X39800Y-31526D03*
X40800Y-31574D03*
X41800Y-31526D03*
G54D12*
X45200Y-32200D03*
X35300Y-47250D03*
G54D13*
X39850Y-33603D03*
X39850Y-45796D03*
G54D14*
X35850Y-34337D03*
X35850Y-33550D03*
X35850Y-32763D03*
G54D15*
X44650Y-36400D03*
X43550Y-33250D03*
X37000Y-42250D03*
X37450Y-34150D03*
X38000Y-42250D03*
X37450Y-34650D03*
X39000Y-42250D03*
X37450Y-35150D03*
X36200Y-38750D03*
X44500Y-38850D03*
X39000Y-47250D03*
X38000Y-47250D03*
X37000Y-47250D03*
X36600Y-36850D03*
X35500Y-42450D03*
X44325Y-44450D03*
X46050Y-46850D03*
X46050Y-43525D03*
X40750Y-43550D03*
X40750Y-46825D03*
X42500Y-38900D03*
X44600Y-36950D03*
X44650Y-35925D03*
G54D16*
X35850Y-33550D02*
X36650Y-33550D01*
X38050Y-32150D02*
X38800Y-32150D01*
X36650Y-33550D02*
X38050Y-32150D01*
X43550Y-33250D02*
X43550Y-35300D01*
X43550Y-35300D02*
X44650Y-36400D01*
X35850Y-33550D02*
X35750Y-33550D01*
X38800Y-32150D02*
X42450Y-32150D01*
X42450Y-32150D02*
X43550Y-33250D01*
X38800Y-31526D02*
X38800Y-32150D01*
X37000Y-42250D02*
X37000Y-34600D01*
X37000Y-34600D02*
X37450Y-34150D01*
X37200Y-41350D02*
X37200Y-34900D01*
X38000Y-42150D02*
X37200Y-41350D01*
X38000Y-42250D02*
X38000Y-42150D01*
X37200Y-34900D02*
X37450Y-34650D01*
X39000Y-42250D02*
X39000Y-42150D01*
X37400Y-35200D02*
X37450Y-35150D01*
X37400Y-40550D02*
X37400Y-35200D01*
X39000Y-42150D02*
X37400Y-40550D01*
X44650Y-35925D02*
X44650Y-35950D01*
X39850Y-33603D02*
X37296Y-33603D01*
X37296Y-33603D02*
X36563Y-34337D01*
X36563Y-34337D02*
X35850Y-34337D01*
G54D10*
G36*
X46337Y-48385D02*
X46120Y-48385D01*
X46120Y-32017D01*
X45980Y-31679D01*
X45721Y-31420D01*
X45383Y-31280D01*
X45017Y-31279D01*
X44679Y-31419D01*
X44420Y-31678D01*
X44280Y-32016D01*
X44279Y-32382D01*
X44419Y-32720D01*
X44678Y-32979D01*
X45016Y-33119D01*
X45382Y-33120D01*
X45720Y-32980D01*
X45979Y-32721D01*
X46119Y-32383D01*
X46120Y-32017D01*
X46120Y-48385D01*
X45350Y-48385D01*
X45350Y-40634D01*
X45316Y-40463D01*
X45269Y-40445D01*
X45269Y-39571D01*
X45209Y-39426D01*
X45098Y-39315D01*
X44952Y-39255D01*
X44895Y-39255D01*
X44895Y-36351D01*
X44857Y-36261D01*
X44788Y-36192D01*
X44698Y-36155D01*
X44631Y-36154D01*
X43710Y-35233D01*
X43710Y-33436D01*
X43757Y-33388D01*
X43794Y-33298D01*
X43795Y-33201D01*
X43757Y-33111D01*
X43688Y-33042D01*
X43598Y-33005D01*
X43531Y-33004D01*
X42563Y-32036D01*
X42511Y-32002D01*
X42450Y-31990D01*
X42195Y-31990D01*
X42195Y-31447D01*
X42135Y-31302D01*
X42024Y-31191D01*
X41878Y-31131D01*
X41721Y-31130D01*
X41576Y-31190D01*
X41465Y-31301D01*
X41405Y-31447D01*
X41404Y-31604D01*
X41464Y-31749D01*
X41575Y-31860D01*
X41721Y-31920D01*
X41878Y-31921D01*
X42023Y-31861D01*
X42134Y-31750D01*
X42194Y-31604D01*
X42195Y-31447D01*
X42195Y-31990D01*
X41195Y-31990D01*
X41195Y-31495D01*
X41135Y-31350D01*
X41024Y-31239D01*
X40878Y-31179D01*
X40721Y-31178D01*
X40576Y-31238D01*
X40465Y-31349D01*
X40405Y-31495D01*
X40404Y-31652D01*
X40464Y-31797D01*
X40575Y-31908D01*
X40721Y-31968D01*
X40878Y-31969D01*
X41023Y-31909D01*
X41134Y-31798D01*
X41194Y-31652D01*
X41195Y-31495D01*
X41195Y-31990D01*
X40324Y-31990D01*
X40324Y-31510D01*
X40290Y-31339D01*
X40211Y-31309D01*
X39994Y-31526D01*
X40211Y-31742D01*
X40290Y-31712D01*
X40324Y-31510D01*
X40324Y-31990D01*
X39996Y-31990D01*
X40016Y-31937D01*
X39800Y-31720D01*
X39605Y-31914D01*
X39605Y-31526D01*
X39388Y-31309D01*
X39309Y-31339D01*
X39275Y-31541D01*
X39309Y-31712D01*
X39388Y-31742D01*
X39605Y-31526D01*
X39605Y-31914D01*
X39583Y-31937D01*
X39603Y-31990D01*
X38960Y-31990D01*
X38960Y-31935D01*
X39023Y-31909D01*
X39134Y-31798D01*
X39194Y-31652D01*
X39195Y-31495D01*
X39135Y-31350D01*
X39024Y-31239D01*
X38878Y-31179D01*
X38721Y-31178D01*
X38576Y-31238D01*
X38465Y-31349D01*
X38405Y-31495D01*
X38404Y-31652D01*
X38464Y-31797D01*
X38575Y-31908D01*
X38640Y-31935D01*
X38640Y-31990D01*
X38195Y-31990D01*
X38195Y-31447D01*
X38135Y-31302D01*
X38024Y-31191D01*
X37878Y-31131D01*
X37721Y-31130D01*
X37576Y-31190D01*
X37465Y-31301D01*
X37405Y-31447D01*
X37404Y-31604D01*
X37464Y-31749D01*
X37575Y-31860D01*
X37721Y-31920D01*
X37878Y-31921D01*
X38023Y-31861D01*
X38134Y-31750D01*
X38194Y-31604D01*
X38195Y-31447D01*
X38195Y-31990D01*
X38050Y-31990D01*
X37988Y-32002D01*
X37936Y-32036D01*
X36583Y-33390D01*
X36238Y-33390D01*
X36206Y-33312D01*
X36088Y-33194D01*
X35997Y-33156D01*
X36087Y-33119D01*
X36205Y-33001D01*
X36269Y-32846D01*
X36270Y-32679D01*
X36206Y-32525D01*
X36088Y-32407D01*
X35933Y-32343D01*
X35766Y-32342D01*
X35612Y-32406D01*
X35494Y-32524D01*
X35430Y-32679D01*
X35429Y-32846D01*
X35493Y-33000D01*
X35611Y-33118D01*
X35702Y-33156D01*
X35612Y-33193D01*
X35494Y-33311D01*
X35430Y-33466D01*
X35429Y-33633D01*
X35493Y-33787D01*
X35611Y-33905D01*
X35702Y-33943D01*
X35612Y-33980D01*
X35494Y-34098D01*
X35430Y-34253D01*
X35429Y-34420D01*
X35493Y-34574D01*
X35611Y-34692D01*
X35766Y-34756D01*
X35933Y-34757D01*
X36087Y-34693D01*
X36205Y-34575D01*
X36238Y-34497D01*
X36563Y-34497D01*
X36624Y-34484D01*
X36624Y-34484D01*
X36676Y-34450D01*
X37362Y-33763D01*
X39082Y-33763D01*
X39082Y-34274D01*
X39100Y-34319D01*
X39134Y-34352D01*
X39178Y-34371D01*
X39226Y-34371D01*
X40521Y-34371D01*
X40565Y-34352D01*
X40599Y-34319D01*
X40617Y-34275D01*
X40617Y-34227D01*
X40617Y-32932D01*
X40599Y-32888D01*
X40565Y-32854D01*
X40521Y-32835D01*
X40473Y-32835D01*
X39178Y-32835D01*
X39134Y-32854D01*
X39100Y-32887D01*
X39082Y-32931D01*
X39082Y-32979D01*
X39082Y-33443D01*
X37296Y-33443D01*
X37235Y-33455D01*
X37183Y-33490D01*
X36496Y-34177D01*
X36238Y-34177D01*
X36206Y-34099D01*
X36088Y-33981D01*
X35997Y-33943D01*
X36087Y-33906D01*
X36205Y-33788D01*
X36238Y-33710D01*
X36650Y-33710D01*
X36711Y-33697D01*
X36711Y-33697D01*
X36763Y-33663D01*
X38116Y-32310D01*
X38800Y-32310D01*
X42383Y-32310D01*
X43305Y-33231D01*
X43304Y-33298D01*
X43342Y-33388D01*
X43390Y-33436D01*
X43390Y-35300D01*
X43402Y-35361D01*
X43436Y-35413D01*
X44405Y-36381D01*
X44404Y-36448D01*
X44442Y-36538D01*
X44511Y-36607D01*
X44601Y-36644D01*
X44698Y-36645D01*
X44788Y-36607D01*
X44857Y-36538D01*
X44894Y-36448D01*
X44895Y-36351D01*
X44895Y-39255D01*
X44795Y-39254D01*
X44650Y-39314D01*
X44539Y-39425D01*
X44479Y-39571D01*
X44478Y-39728D01*
X44538Y-39873D01*
X44649Y-39984D01*
X44795Y-40044D01*
X44952Y-40045D01*
X45097Y-39985D01*
X45208Y-39874D01*
X45268Y-39728D01*
X45269Y-39571D01*
X45269Y-40445D01*
X45237Y-40433D01*
X45042Y-40627D01*
X45042Y-40238D01*
X45012Y-40159D01*
X44810Y-40125D01*
X44639Y-40159D01*
X44609Y-40238D01*
X44826Y-40455D01*
X45042Y-40238D01*
X45042Y-40627D01*
X45020Y-40650D01*
X45237Y-40866D01*
X45316Y-40836D01*
X45350Y-40634D01*
X45350Y-48385D01*
X45269Y-48385D01*
X45269Y-41571D01*
X45209Y-41426D01*
X45098Y-41315D01*
X45042Y-41292D01*
X45042Y-41061D01*
X44826Y-40844D01*
X44631Y-41038D01*
X44631Y-40650D01*
X44414Y-40433D01*
X44335Y-40463D01*
X44301Y-40665D01*
X44335Y-40836D01*
X44414Y-40866D01*
X44631Y-40650D01*
X44631Y-41038D01*
X44609Y-41061D01*
X44639Y-41140D01*
X44841Y-41174D01*
X45012Y-41140D01*
X45042Y-41061D01*
X45042Y-41292D01*
X44952Y-41255D01*
X44795Y-41254D01*
X44650Y-41314D01*
X44539Y-41425D01*
X44479Y-41571D01*
X44478Y-41728D01*
X44538Y-41873D01*
X44649Y-41984D01*
X44795Y-42044D01*
X44952Y-42045D01*
X45097Y-41985D01*
X45208Y-41874D01*
X45268Y-41728D01*
X45269Y-41571D01*
X45269Y-48385D01*
X40737Y-48385D01*
X40737Y-46491D01*
X40737Y-45101D01*
X40701Y-45013D01*
X40633Y-44945D01*
X40545Y-44908D01*
X40450Y-44908D01*
X40233Y-44908D01*
X40173Y-44968D01*
X40173Y-45472D01*
X40677Y-45472D01*
X40737Y-45412D01*
X40737Y-45101D01*
X40737Y-46491D01*
X40737Y-46180D01*
X40677Y-46120D01*
X40173Y-46120D01*
X40173Y-46624D01*
X40233Y-46684D01*
X40450Y-46684D01*
X40545Y-46684D01*
X40633Y-46647D01*
X40701Y-46579D01*
X40737Y-46491D01*
X40737Y-48385D01*
X39526Y-48385D01*
X39526Y-46624D01*
X39526Y-46120D01*
X39526Y-45472D01*
X39526Y-44968D01*
X39466Y-44908D01*
X39249Y-44908D01*
X39245Y-44908D01*
X39245Y-42201D01*
X39207Y-42111D01*
X39138Y-42042D01*
X39104Y-42028D01*
X37560Y-40483D01*
X37560Y-35369D01*
X37588Y-35357D01*
X37657Y-35288D01*
X37694Y-35198D01*
X37695Y-35101D01*
X37657Y-35011D01*
X37588Y-34942D01*
X37498Y-34905D01*
X37421Y-34904D01*
X37431Y-34894D01*
X37498Y-34895D01*
X37588Y-34857D01*
X37657Y-34788D01*
X37694Y-34698D01*
X37695Y-34601D01*
X37657Y-34511D01*
X37588Y-34442D01*
X37498Y-34405D01*
X37421Y-34404D01*
X37431Y-34394D01*
X37498Y-34395D01*
X37588Y-34357D01*
X37657Y-34288D01*
X37694Y-34198D01*
X37695Y-34101D01*
X37657Y-34011D01*
X37588Y-33942D01*
X37498Y-33905D01*
X37401Y-33904D01*
X37311Y-33942D01*
X37242Y-34011D01*
X37205Y-34101D01*
X37204Y-34168D01*
X36886Y-34486D01*
X36852Y-34538D01*
X36840Y-34600D01*
X36840Y-42063D01*
X36792Y-42111D01*
X36755Y-42201D01*
X36754Y-42298D01*
X36792Y-42388D01*
X36861Y-42457D01*
X36951Y-42494D01*
X37048Y-42495D01*
X37138Y-42457D01*
X37207Y-42388D01*
X37244Y-42298D01*
X37245Y-42201D01*
X37207Y-42111D01*
X37160Y-42063D01*
X37160Y-41536D01*
X37775Y-42151D01*
X37755Y-42201D01*
X37754Y-42298D01*
X37792Y-42388D01*
X37861Y-42457D01*
X37951Y-42494D01*
X38048Y-42495D01*
X38138Y-42457D01*
X38207Y-42388D01*
X38244Y-42298D01*
X38245Y-42201D01*
X38207Y-42111D01*
X38138Y-42042D01*
X38104Y-42028D01*
X37360Y-41283D01*
X37360Y-40736D01*
X38775Y-42151D01*
X38755Y-42201D01*
X38754Y-42298D01*
X38792Y-42388D01*
X38861Y-42457D01*
X38951Y-42494D01*
X39048Y-42495D01*
X39138Y-42457D01*
X39207Y-42388D01*
X39244Y-42298D01*
X39245Y-42201D01*
X39245Y-44908D01*
X39154Y-44908D01*
X39066Y-44945D01*
X38998Y-45013D01*
X38962Y-45101D01*
X38962Y-45412D01*
X39022Y-45472D01*
X39526Y-45472D01*
X39526Y-46120D01*
X39022Y-46120D01*
X38962Y-46180D01*
X38962Y-46491D01*
X38998Y-46579D01*
X39066Y-46647D01*
X39154Y-46684D01*
X39249Y-46684D01*
X39466Y-46684D01*
X39526Y-46624D01*
X39526Y-48385D01*
X36220Y-48385D01*
X36220Y-47067D01*
X36080Y-46729D01*
X35821Y-46470D01*
X35483Y-46330D01*
X35117Y-46329D01*
X34779Y-46469D01*
X34520Y-46728D01*
X34380Y-47066D01*
X34379Y-47432D01*
X34519Y-47770D01*
X34778Y-48029D01*
X35116Y-48169D01*
X35482Y-48170D01*
X35820Y-48030D01*
X36079Y-47771D01*
X36219Y-47433D01*
X36220Y-47067D01*
X36220Y-48385D01*
X34173Y-48385D01*
X34173Y-31024D01*
X39668Y-31024D01*
X39613Y-31035D01*
X39583Y-31114D01*
X39800Y-31331D01*
X40016Y-31114D01*
X39986Y-31035D01*
X39921Y-31024D01*
X46337Y-31024D01*
X46337Y-48385D01*
X46337Y-48385D01*
G37*
G54D16*
X46337Y-48385D02*
X46120Y-48385D01*
X46120Y-32017D01*
X45980Y-31679D01*
X45721Y-31420D01*
X45383Y-31280D01*
X45017Y-31279D01*
X44679Y-31419D01*
X44420Y-31678D01*
X44280Y-32016D01*
X44279Y-32382D01*
X44419Y-32720D01*
X44678Y-32979D01*
X45016Y-33119D01*
X45382Y-33120D01*
X45720Y-32980D01*
X45979Y-32721D01*
X46119Y-32383D01*
X46120Y-32017D01*
X46120Y-48385D01*
X45350Y-48385D01*
X45350Y-40634D01*
X45316Y-40463D01*
X45269Y-40445D01*
X45269Y-39571D01*
X45209Y-39426D01*
X45098Y-39315D01*
X44952Y-39255D01*
X44895Y-39255D01*
X44895Y-36351D01*
X44857Y-36261D01*
X44788Y-36192D01*
X44698Y-36155D01*
X44631Y-36154D01*
X43710Y-35233D01*
X43710Y-33436D01*
X43757Y-33388D01*
X43794Y-33298D01*
X43795Y-33201D01*
X43757Y-33111D01*
X43688Y-33042D01*
X43598Y-33005D01*
X43531Y-33004D01*
X42563Y-32036D01*
X42511Y-32002D01*
X42450Y-31990D01*
X42195Y-31990D01*
X42195Y-31447D01*
X42135Y-31302D01*
X42024Y-31191D01*
X41878Y-31131D01*
X41721Y-31130D01*
X41576Y-31190D01*
X41465Y-31301D01*
X41405Y-31447D01*
X41404Y-31604D01*
X41464Y-31749D01*
X41575Y-31860D01*
X41721Y-31920D01*
X41878Y-31921D01*
X42023Y-31861D01*
X42134Y-31750D01*
X42194Y-31604D01*
X42195Y-31447D01*
X42195Y-31990D01*
X41195Y-31990D01*
X41195Y-31495D01*
X41135Y-31350D01*
X41024Y-31239D01*
X40878Y-31179D01*
X40721Y-31178D01*
X40576Y-31238D01*
X40465Y-31349D01*
X40405Y-31495D01*
X40404Y-31652D01*
X40464Y-31797D01*
X40575Y-31908D01*
X40721Y-31968D01*
X40878Y-31969D01*
X41023Y-31909D01*
X41134Y-31798D01*
X41194Y-31652D01*
X41195Y-31495D01*
X41195Y-31990D01*
X40324Y-31990D01*
X40324Y-31510D01*
X40290Y-31339D01*
X40211Y-31309D01*
X39994Y-31526D01*
X40211Y-31742D01*
X40290Y-31712D01*
X40324Y-31510D01*
X40324Y-31990D01*
X39996Y-31990D01*
X40016Y-31937D01*
X39800Y-31720D01*
X39605Y-31914D01*
X39605Y-31526D01*
X39388Y-31309D01*
X39309Y-31339D01*
X39275Y-31541D01*
X39309Y-31712D01*
X39388Y-31742D01*
X39605Y-31526D01*
X39605Y-31914D01*
X39583Y-31937D01*
X39603Y-31990D01*
X38960Y-31990D01*
X38960Y-31935D01*
X39023Y-31909D01*
X39134Y-31798D01*
X39194Y-31652D01*
X39195Y-31495D01*
X39135Y-31350D01*
X39024Y-31239D01*
X38878Y-31179D01*
X38721Y-31178D01*
X38576Y-31238D01*
X38465Y-31349D01*
X38405Y-31495D01*
X38404Y-31652D01*
X38464Y-31797D01*
X38575Y-31908D01*
X38640Y-31935D01*
X38640Y-31990D01*
X38195Y-31990D01*
X38195Y-31447D01*
X38135Y-31302D01*
X38024Y-31191D01*
X37878Y-31131D01*
X37721Y-31130D01*
X37576Y-31190D01*
X37465Y-31301D01*
X37405Y-31447D01*
X37404Y-31604D01*
X37464Y-31749D01*
X37575Y-31860D01*
X37721Y-31920D01*
X37878Y-31921D01*
X38023Y-31861D01*
X38134Y-31750D01*
X38194Y-31604D01*
X38195Y-31447D01*
X38195Y-31990D01*
X38050Y-31990D01*
X37988Y-32002D01*
X37936Y-32036D01*
X36583Y-33390D01*
X36238Y-33390D01*
X36206Y-33312D01*
X36088Y-33194D01*
X35997Y-33156D01*
X36087Y-33119D01*
X36205Y-33001D01*
X36269Y-32846D01*
X36270Y-32679D01*
X36206Y-32525D01*
X36088Y-32407D01*
X35933Y-32343D01*
X35766Y-32342D01*
X35612Y-32406D01*
X35494Y-32524D01*
X35430Y-32679D01*
X35429Y-32846D01*
X35493Y-33000D01*
X35611Y-33118D01*
X35702Y-33156D01*
X35612Y-33193D01*
X35494Y-33311D01*
X35430Y-33466D01*
X35429Y-33633D01*
X35493Y-33787D01*
X35611Y-33905D01*
X35702Y-33943D01*
X35612Y-33980D01*
X35494Y-34098D01*
X35430Y-34253D01*
X35429Y-34420D01*
X35493Y-34574D01*
X35611Y-34692D01*
X35766Y-34756D01*
X35933Y-34757D01*
X36087Y-34693D01*
X36205Y-34575D01*
X36238Y-34497D01*
X36563Y-34497D01*
X36624Y-34484D01*
X36624Y-34484D01*
X36676Y-34450D01*
X37362Y-33763D01*
X39082Y-33763D01*
X39082Y-34274D01*
X39100Y-34319D01*
X39134Y-34352D01*
X39178Y-34371D01*
X39226Y-34371D01*
X40521Y-34371D01*
X40565Y-34352D01*
X40599Y-34319D01*
X40617Y-34275D01*
X40617Y-34227D01*
X40617Y-32932D01*
X40599Y-32888D01*
X40565Y-32854D01*
X40521Y-32835D01*
X40473Y-32835D01*
X39178Y-32835D01*
X39134Y-32854D01*
X39100Y-32887D01*
X39082Y-32931D01*
X39082Y-32979D01*
X39082Y-33443D01*
X37296Y-33443D01*
X37235Y-33455D01*
X37183Y-33490D01*
X36496Y-34177D01*
X36238Y-34177D01*
X36206Y-34099D01*
X36088Y-33981D01*
X35997Y-33943D01*
X36087Y-33906D01*
X36205Y-33788D01*
X36238Y-33710D01*
X36650Y-33710D01*
X36711Y-33697D01*
X36711Y-33697D01*
X36763Y-33663D01*
X38116Y-32310D01*
X38800Y-32310D01*
X42383Y-32310D01*
X43305Y-33231D01*
X43304Y-33298D01*
X43342Y-33388D01*
X43390Y-33436D01*
X43390Y-35300D01*
X43402Y-35361D01*
X43436Y-35413D01*
X44405Y-36381D01*
X44404Y-36448D01*
X44442Y-36538D01*
X44511Y-36607D01*
X44601Y-36644D01*
X44698Y-36645D01*
X44788Y-36607D01*
X44857Y-36538D01*
X44894Y-36448D01*
X44895Y-36351D01*
X44895Y-39255D01*
X44795Y-39254D01*
X44650Y-39314D01*
X44539Y-39425D01*
X44479Y-39571D01*
X44478Y-39728D01*
X44538Y-39873D01*
X44649Y-39984D01*
X44795Y-40044D01*
X44952Y-40045D01*
X45097Y-39985D01*
X45208Y-39874D01*
X45268Y-39728D01*
X45269Y-39571D01*
X45269Y-40445D01*
X45237Y-40433D01*
X45042Y-40627D01*
X45042Y-40238D01*
X45012Y-40159D01*
X44810Y-40125D01*
X44639Y-40159D01*
X44609Y-40238D01*
X44826Y-40455D01*
X45042Y-40238D01*
X45042Y-40627D01*
X45020Y-40650D01*
X45237Y-40866D01*
X45316Y-40836D01*
X45350Y-40634D01*
X45350Y-48385D01*
X45269Y-48385D01*
X45269Y-41571D01*
X45209Y-41426D01*
X45098Y-41315D01*
X45042Y-41292D01*
X45042Y-41061D01*
X44826Y-40844D01*
X44631Y-41038D01*
X44631Y-40650D01*
X44414Y-40433D01*
X44335Y-40463D01*
X44301Y-40665D01*
X44335Y-40836D01*
X44414Y-40866D01*
X44631Y-40650D01*
X44631Y-41038D01*
X44609Y-41061D01*
X44639Y-41140D01*
X44841Y-41174D01*
X45012Y-41140D01*
X45042Y-41061D01*
X45042Y-41292D01*
X44952Y-41255D01*
X44795Y-41254D01*
X44650Y-41314D01*
X44539Y-41425D01*
X44479Y-41571D01*
X44478Y-41728D01*
X44538Y-41873D01*
X44649Y-41984D01*
X44795Y-42044D01*
X44952Y-42045D01*
X45097Y-41985D01*
X45208Y-41874D01*
X45268Y-41728D01*
X45269Y-41571D01*
X45269Y-48385D01*
X40737Y-48385D01*
X40737Y-46491D01*
X40737Y-45101D01*
X40701Y-45013D01*
X40633Y-44945D01*
X40545Y-44908D01*
X40450Y-44908D01*
X40233Y-44908D01*
X40173Y-44968D01*
X40173Y-45472D01*
X40677Y-45472D01*
X40737Y-45412D01*
X40737Y-45101D01*
X40737Y-46491D01*
X40737Y-46180D01*
X40677Y-46120D01*
X40173Y-46120D01*
X40173Y-46624D01*
X40233Y-46684D01*
X40450Y-46684D01*
X40545Y-46684D01*
X40633Y-46647D01*
X40701Y-46579D01*
X40737Y-46491D01*
X40737Y-48385D01*
X39526Y-48385D01*
X39526Y-46624D01*
X39526Y-46120D01*
X39526Y-45472D01*
X39526Y-44968D01*
X39466Y-44908D01*
X39249Y-44908D01*
X39245Y-44908D01*
X39245Y-42201D01*
X39207Y-42111D01*
X39138Y-42042D01*
X39104Y-42028D01*
X37560Y-40483D01*
X37560Y-35369D01*
X37588Y-35357D01*
X37657Y-35288D01*
X37694Y-35198D01*
X37695Y-35101D01*
X37657Y-35011D01*
X37588Y-34942D01*
X37498Y-34905D01*
X37421Y-34904D01*
X37431Y-34894D01*
X37498Y-34895D01*
X37588Y-34857D01*
X37657Y-34788D01*
X37694Y-34698D01*
X37695Y-34601D01*
X37657Y-34511D01*
X37588Y-34442D01*
X37498Y-34405D01*
X37421Y-34404D01*
X37431Y-34394D01*
X37498Y-34395D01*
X37588Y-34357D01*
X37657Y-34288D01*
X37694Y-34198D01*
X37695Y-34101D01*
X37657Y-34011D01*
X37588Y-33942D01*
X37498Y-33905D01*
X37401Y-33904D01*
X37311Y-33942D01*
X37242Y-34011D01*
X37205Y-34101D01*
X37204Y-34168D01*
X36886Y-34486D01*
X36852Y-34538D01*
X36840Y-34600D01*
X36840Y-42063D01*
X36792Y-42111D01*
X36755Y-42201D01*
X36754Y-42298D01*
X36792Y-42388D01*
X36861Y-42457D01*
X36951Y-42494D01*
X37048Y-42495D01*
X37138Y-42457D01*
X37207Y-42388D01*
X37244Y-42298D01*
X37245Y-42201D01*
X37207Y-42111D01*
X37160Y-42063D01*
X37160Y-41536D01*
X37775Y-42151D01*
X37755Y-42201D01*
X37754Y-42298D01*
X37792Y-42388D01*
X37861Y-42457D01*
X37951Y-42494D01*
X38048Y-42495D01*
X38138Y-42457D01*
X38207Y-42388D01*
X38244Y-42298D01*
X38245Y-42201D01*
X38207Y-42111D01*
X38138Y-42042D01*
X38104Y-42028D01*
X37360Y-41283D01*
X37360Y-40736D01*
X38775Y-42151D01*
X38755Y-42201D01*
X38754Y-42298D01*
X38792Y-42388D01*
X38861Y-42457D01*
X38951Y-42494D01*
X39048Y-42495D01*
X39138Y-42457D01*
X39207Y-42388D01*
X39244Y-42298D01*
X39245Y-42201D01*
X39245Y-44908D01*
X39154Y-44908D01*
X39066Y-44945D01*
X38998Y-45013D01*
X38962Y-45101D01*
X38962Y-45412D01*
X39022Y-45472D01*
X39526Y-45472D01*
X39526Y-46120D01*
X39022Y-46120D01*
X38962Y-46180D01*
X38962Y-46491D01*
X38998Y-46579D01*
X39066Y-46647D01*
X39154Y-46684D01*
X39249Y-46684D01*
X39466Y-46684D01*
X39526Y-46624D01*
X39526Y-48385D01*
X36220Y-48385D01*
X36220Y-47067D01*
X36080Y-46729D01*
X35821Y-46470D01*
X35483Y-46330D01*
X35117Y-46329D01*
X34779Y-46469D01*
X34520Y-46728D01*
X34380Y-47066D01*
X34379Y-47432D01*
X34519Y-47770D01*
X34778Y-48029D01*
X35116Y-48169D01*
X35482Y-48170D01*
X35820Y-48030D01*
X36079Y-47771D01*
X36219Y-47433D01*
X36220Y-47067D01*
X36220Y-48385D01*
X34173Y-48385D01*
X34173Y-31024D01*
X39668Y-31024D01*
X39613Y-31035D01*
X39583Y-31114D01*
X39800Y-31331D01*
X40016Y-31114D01*
X39986Y-31035D01*
X39921Y-31024D01*
X46337Y-31024D01*
X46337Y-48385D01*
M02*
