M48
;DRILL file {Pcbnew (2013-07-07 BZR 4022)-stable} date 7/21/2013 7:01:30 PM
;FORMAT={-:-/ absolute / inch / decimal}
FMAT,2
INCH,TZ
T1C0.015
T2C0.032
T3C0.038
T4C0.120
%
G90
G05
M72
T1
X3.55Y-4.245
X3.62Y-3.875
X3.66Y-3.685
X3.7Y-4.225
X3.7Y-4.725
X3.745Y-3.415
X3.745Y-3.465
X3.745Y-3.515
X3.8Y-4.225
X3.8Y-4.725
X3.9Y-4.225
X3.9Y-4.725
X4.075Y-4.355
X4.075Y-4.6825
X4.25Y-3.89
X4.355Y-3.325
X4.4325Y-4.445
X4.45Y-3.885
X4.46Y-3.695
X4.465Y-3.5925
X4.465Y-3.64
X4.605Y-4.3525
X4.605Y-4.685
T2
X3.78Y-3.1526
X3.88Y-3.1574
X3.98Y-3.1526
X4.08Y-3.1574
X4.18Y-3.1526
X4.4826Y-4.065
X4.4874Y-3.965
X4.4874Y-4.165
T3
X3.585Y-3.2763
X3.585Y-3.355
X3.585Y-3.4337
T4
X3.53Y-4.725
X4.52Y-3.22
T0
M30
