G04 (created by PCBNEW (2013-07-07 BZR 4022)-stable) date 7/21/2013 7:03:44 PM*
%MOIN*%
G04 Gerber Fmt 3.4, Leading zero omitted, Abs format*
%FSLAX34Y34*%
G01*
G70*
G90*
G04 APERTURE LIST*
%ADD10C,0.00590551*%
%ADD11R,0.0436X0.0613*%
%ADD12R,0.0613X0.0791*%
%ADD13R,0.0790551X0.13811*%
%ADD14C,0.075*%
%ADD15R,0.0417X0.0651*%
%ADD16R,0.0651X0.0417*%
%ADD17R,0.0909X0.0829*%
%ADD18R,0.075X0.055*%
%ADD19C,0.18*%
%ADD20R,0.055X0.075*%
%ADD21R,0.07X0.04*%
%ADD22C,0.08*%
G04 APERTURE END LIST*
G54D10*
G54D11*
X42152Y-43922D03*
X42585Y-43922D03*
X43018Y-43922D03*
X43451Y-43922D03*
X43884Y-43922D03*
X44317Y-43922D03*
X44750Y-43922D03*
X45183Y-43922D03*
G54D12*
X40752Y-42926D03*
X46048Y-42926D03*
X40752Y-46233D03*
X46048Y-46233D03*
G54D13*
X37000Y-43155D03*
X38000Y-43155D03*
X39000Y-43155D03*
X39000Y-46344D03*
X38000Y-46344D03*
X37000Y-46344D03*
G54D14*
X44874Y-41650D03*
X44826Y-40650D03*
X44874Y-39650D03*
G54D15*
X45437Y-37468D03*
X45122Y-37468D03*
X44807Y-37468D03*
X44493Y-37468D03*
X44178Y-37468D03*
X43863Y-37468D03*
G54D16*
X43824Y-37900D03*
G54D15*
X43863Y-38332D03*
X44178Y-38332D03*
X44493Y-38332D03*
X44807Y-38332D03*
X45122Y-38332D03*
X45437Y-38332D03*
G54D16*
X45476Y-37900D03*
G54D14*
X37800Y-31526D03*
X38800Y-31574D03*
X39800Y-31526D03*
X40800Y-31574D03*
X41800Y-31526D03*
G54D17*
X35500Y-36691D03*
X35500Y-37809D03*
X35500Y-39241D03*
X35500Y-40359D03*
G54D18*
X36800Y-39525D03*
X36800Y-38775D03*
X37000Y-41025D03*
X37000Y-41775D03*
X38000Y-41025D03*
X38000Y-41775D03*
X39000Y-41025D03*
X39000Y-41775D03*
G54D19*
X45200Y-32200D03*
X35300Y-47250D03*
G54D20*
X38775Y-32750D03*
X38025Y-32750D03*
X36425Y-37900D03*
X37175Y-37900D03*
G54D18*
X35500Y-41975D03*
X35500Y-41225D03*
X42600Y-35975D03*
X42600Y-35225D03*
X43550Y-33875D03*
X43550Y-34625D03*
X42500Y-37675D03*
X42500Y-38425D03*
X37200Y-36075D03*
X37200Y-36825D03*
X45300Y-36675D03*
X45300Y-35925D03*
X44050Y-36675D03*
X44050Y-35925D03*
G54D21*
X38000Y-33650D03*
X38000Y-34150D03*
X38000Y-34650D03*
X38000Y-35150D03*
X38000Y-35650D03*
X38000Y-36150D03*
X38000Y-36650D03*
X38000Y-37150D03*
X38000Y-37650D03*
X38000Y-38150D03*
X38000Y-38650D03*
X38000Y-39150D03*
X38000Y-39650D03*
X38000Y-40150D03*
X41600Y-40150D03*
X41600Y-39650D03*
X41600Y-39150D03*
X41600Y-38650D03*
X41600Y-38150D03*
X41600Y-37650D03*
X41600Y-37150D03*
X41600Y-36650D03*
X41600Y-36150D03*
X41600Y-35650D03*
X41600Y-35150D03*
X41600Y-34650D03*
X41600Y-34150D03*
X41600Y-33650D03*
G54D22*
X35850Y-34337D03*
X35850Y-33550D03*
X35850Y-32763D03*
M02*
